<svg viewBox="0 0 356.34 394.74" xmlns="http://www.w3.org/2000/svg"><path d="m314.03 389.19h-9.26s-4.4-35.72-4.4-35.72h13.67s0 35.72 0 35.72z" fill="#ffb6b6"/><path d="m282.31 388.98c-.29.49-.44 2.05-.44 2.62 0 1.74 1.41 3.14 3.14 3.14h28.68c1.18 0 2.14-.96 2.14-2.14v-1.19s1.42-3.59-1.5-8.01c0 0-3.63 3.46-9.05-1.96l-1.6-2.9-11.58 8.47-6.42.79c-1.4.17-2.65-.03-3.37 1.19z" fill="#2f2e41"/><path d="m271.93 389.19h-9.26s-4.4-35.72-4.4-35.72h13.67s0 35.72 0 35.72z" fill="#ffb6b6"/><path d="m240.2 388.98c-.29.49-.44 2.05-.44 2.62 0 1.74 1.41 3.14 3.14 3.14h28.68c1.18 0 2.14-.96 2.14-2.14v-1.19s1.42-3.59-1.5-8.01c0 0-3.63 3.46-9.05-1.96l-1.6-2.9-11.58 8.47-6.42.79c-1.4.17-2.65-.03-3.37 1.19z" fill="#2f2e41"/><path d="m328.89 166.2-64.44 1.72-6.57 15.47-8.04 100.53 6.87 88.5h20.07v-83.53l15.16-51.37 6.01 132.32 20.72 2.58 8.5-91.08 7.73-86.78-6.01-28.35z" fill="#2f2e41"/><path d="m306 51.07-22.34.86-2.58 10.31s-27.49 7.73-25.78 18.04 10.31 55.85 10.31 55.85-9.45 29.21-3.44 32.65 67.99 0 67.99 0 5.04-12.89 2.46-14.61 7.73-84.2 6.01-85.92-30.07-10.31-30.07-10.31l-2.58-6.87z" fill="#93ad92"/><path d="m349.82 136.99 1.72 12.03-18.9 42.96-9.45-5.16 10.31-40.38 1.72-15.47 14.61 6.01z" fill="#ffb6b6"/><path d="m331.77 69.11s9.45-4.3 16.32 11.17 5.16 48.97 5.16 48.97 2.58 2.58.86 4.3-4.98-2.33-1.72 3.14c1.72 2.88 6.87 2.02 1.72 2.88s-3.35-1.54-1.72 1.72c.86 1.72 4.3 1.72.86 2.58s-20.73-.62-20.73-.62-5.91-2.82-2.47-4.54 5.16-2.06 3.44-2.75-6.01-.69-3.44-3.27 4.3-2.58 2.58-2.58-3.65-4.14-3.65-4.14z" fill="#93ad92"/><ellipse cx="324.82" cy="196.93" fill="#ffb6b6" rx="11.96" ry="7.1" transform="matrix(.31680807 -.94848967 .94848967 .31680807 35.11 442.61)"/><path d="m230.12 132.92-6.83 10.05-42.91 19.01-3.51-10.18 34.83-22.89 11.69-10.27 6.74 14.29z" fill="#ffb6b6"/><path d="m262.53 70.6s9.88 3.19 4.54 19.25-29.19 39.66-29.19 39.66.17 3.64-2.26 3.75-2.12-5.08-3.38 1.16c-.67 3.28 3.72 6.12-.67 3.28s-1.44-3.4-2.43.11c-.52 1.85 2.02 4.16-1.1 2.48s-14.9-14.42-14.9-14.42-2.46-6.06 1.23-5.02 5.2 1.95 4.39.29-3.98-4.56-.34-4.73 4.91.99 3.64-.17.09-5.52.09-5.52l40.38-40.14z" fill="#93ad92"/><ellipse cx="171.26" cy="160.37" fill="#ffb6b6" rx="11.96" ry="7.1" transform="matrix(.8731774 -.48740253 .48740253 .8731774 -56.44 103.8)"/><circle cx="295.8" cy="26.23" fill="#ffb6b6" r="20.63"/><path d="m279.32 9.64c1.05-2.98 3.96-4.78 7.12-4.71h.4c1.59-.07 3.12-.61 4.67-.93 2.91-.59 5.97-.39 8.77.57.87.3 1.74.68 2.67.68.92 0 1.93-.51 2.15-1.4.05.81.11 1.62.16 2.43.3-.65.6-1.31.9-1.96l.6 2.61 1.92-2.18c-.17.96.39 1.93 1.15 2.55s1.7.96 2.6 1.34c3.88 1.65 7.53 4.58 8.64 8.65.71 2.57.34 5.3-.04 7.94-.33 2.33-.69 4.75-1.96 6.73-.81 1.27-1.98 2.34-2.48 3.77-.46 1.33-.29 2.85-.94 4.1-.66 1.25-2.02 1.96-3.35 2.43-1.33.48-2.75.81-3.89 1.64-1.15.83-2.48 3.21-4.98 3.08l-.81-1.52c-.83-.68 2.24-.14 2.27-1.21s-3.69-1.73-3.17-2.66c.81-1.43 1.91-2.67 2.82-4.03 1.07-1.6 1.91-3.46 1.54-5.41-.14-.76-.5-1.47-1.04-2.02-1.56-1.59-3.29-.89-4.98-.66-1.16.16-2.55-.02-3.15-1.03-.71-1.18.08-2.67-.02-4.04-.1-1.45-1.2-2.64-2.4-3.47s-2.55-1.43-3.63-2.41-.91-.47-.44-1.85c-8 6-6.82-4.36-12.19-3.06.26-1.34.61-2.67 1.07-3.96z" fill="#2f2e41"/><path d="m99.98 374.23 7.62-1.92-5.2-35.17-11.24 2.83 8.83 34.25z" fill="#ffb6b6"/><path d="m130.31 382.83c.35 1.28-.27 2.57-1.38 2.88l-15.02 4.16s-3.12-5.53-9.86-6.42l1.94 8.61-7.75 2.15-2.85-13.93s-4.1-6.74-.83-11.67-.07-3.44-.07-3.44l-.65-8.93 12.09-1.87 3.76 13.25 9.33 11.6 9.48 1.81c.84.16 1.55.86 1.81 1.79z" fill="#2f2e41"/><path d="m27.02 368.12 7.34 2.79 15.87-31.81-10.84-4.11-12.37 33.14z" fill="#ffb6b6"/><path d="m46.98 392.53c-.44 1.25-1.69 1.95-2.78 1.57l-14.7-5.19s.6-6.32-4.41-10.91l-3.34 8.17-7.58-2.68 5.64-13.05s.5-7.87 6-10.04 1.91-2.87 1.91-2.87l4.58-7.69 10.98 5.39-4.5 13.02 1.01 14.86 6.73 6.91c.6.61.78 1.6.46 2.5z" fill="#2f2e41"/><path d="m58.91 53.61h-38.97c.06-1.83-.33-3.66-1.13-5.3-.02 1.82-.43 3.64-1.18 5.3h-1.77c-2.7 0-4.9-2.2-4.9-4.9v-25.32c-.01-12.41 9.73-22.63 22.11-23.22.37-.02.73-.03 1.1-.03 10.09 0 19.1 6.54 22.16 16.24 4.5-2.08 7.2 9.72 8.99 28.47 1.36 4.34-1.88 8.76-6.42 8.76z" fill="#2f2e41"/><path d="m135.38 198.4c1.93 4.58 1.14 9.29-1.78 10.52s-6.84-1.49-8.78-6.07c-.85-2-1.17-4.03-1.02-5.79l-7.94-19.51 9.23-3.53 6.85 19.61c1.36 1.12 2.59 2.76 3.43 4.77z" fill="#ffb6b6"/><path d="m49.99 45.04-18.63 3.9 2.86 8.57-5.71 65.56 9.52 21.11 58.1-4.76-14.29-28.57s5.71-23.81-1.9-28.57-20-28.57-20-28.57l-9.94-8.66z" fill="#93ad92"/><g fill="#2f2e41"><path d="m32.63 52.73-16.5 6.69 5.71 83.81-12.38 72.38 40 6.67s-4.76-160-7.62-162.86-9.21-6.69-9.21-6.69z"/><path d="m64.95 63.18s10.74-6.79 16.54-1.76 50.47 126.63 50.47 126.63l-12.05 5.23-27.63-57.93z"/><path d="m95.71 268.06 10.9 83.74-15.24.95s-7.92-21.62-16.96-47.09c-1.92-5.4-3.9-10.97-5.85-16.55-2.11-6.06-4.22-12.11-6.22-17.96-4.94-14.42-9.28-27.54-11.75-36.12-.43-1.5-.81-2.87-1.12-4.07-6.67-25.6-10.48-92.51-10.48-92.51l55.24-4.76.59.73 11.79 14.73-.55 3.11-14.69 82.37 4.34 33.4z"/><path d="m91.37 234.66 4.34 33.4-19.53 34.39-1.77 3.22-26.9 48.88-13.29-7.53s17.29-39.72 28.11-75.86c1.2-3.97 2.31-7.9 3.31-11.73 2.94-11.21-1.88-31.67 0-37.31 6.37-19.03 27.13-57.1 36.77-74.34l3.62 4.51-14.69 82.37z"/><path d="m59.7 52.98 19.29 7.39 50.48 147.62-30.48 4.76-14.29-85.72-25-74.06z"/></g><path d="m11.47 212.32c-.49 4.95-3.44 8.7-6.59 8.39s-5.3-4.57-4.81-9.52c.21-2.17.9-4.1 1.87-5.57l2.34-20.93 9.8 1.31-3.35 20.5c.66 1.63.95 3.66.74 5.83z" fill="#ffb6b6"/><path d="m22.79 59.41s-12.38-2.86-16.19 3.81c-3.81 6.67-5.71 136.2-5.71 136.2l13.1.95 6.9-63.81 1.9-77.14z" fill="#2f2e41"/><circle cx="38.6" cy="22.93" fill="#ffb6b6" r="19.8"/><path d="m63.45 21.23s-9.64-2.86-15.42 0c-8.02 3.97-28.51 0-28.51 0v-8.95c0-5.22 3.89-9.63 9.08-10.28l14.78-1.85c11.61-1.45 21.86 7.6 21.86 19.29 0 .99-.8 1.78-1.78 1.78z" fill="#2f2e41"/><path d="m42.37 53.61h-22.44c.06-1.83-.33-3.66-1.13-5.3-.02 1.82-.43 3.64-1.18 5.3h-.96v-40h17.14z" fill="#2f2e41"/></svg>