<?xml version="1.0" encoding="UTF-8"?>
<svg id="Layer_2" data-name="Layer 2" xmlns="http://www.w3.org/2000/svg" viewBox="0 0 172.36 510.21">
  <defs>
    <style>
      .cls-1 {
        fill: #2f2e41;
      }

      .cls-1, .cls-2, .cls-3, .cls-4, .cls-5 {
        stroke-width: 0px;
      }

      .cls-2 {
        fill: #3f3d56;
      }

      .cls-3 {
        fill: #93ad92;
      }

      .cls-4 {
        fill: #fff;
      }

      .cls-5 {
        fill: #ffb8b8;
      }
    </style>
  </defs>
  <g id="Layer_1-2" data-name="Layer 1">
    <polygon class="cls-5" points="94.8 494.78 78.88 494.78 71.31 433.4 94.8 433.4 94.8 494.78"/>
    <path class="cls-1" d="m98.85,510.21h-51.31v-.65c0-11.03,8.94-19.97,19.97-19.97h31.34s0,20.62,0,20.62Z"/>
    <polygon class="cls-5" points="72.42 448.63 57.61 454.46 28.09 400.11 49.95 391.51 72.42 448.63"/>
    <path class="cls-1" d="m81.85,461.5l-47.75,18.79-.24-.6c-4.04-10.26,1.01-21.86,11.27-25.9h0s29.16-11.48,29.16-11.48l7.55,19.19Z"/>
    <path class="cls-1" d="m67.57,474.84l5.07-186.22-22.55,79.83,16.29,55.39-27.03,22.97-27.55-87.91-.05-.15,27.38-144.75,80.99-3.92.58-.03.09.57c.08.48,7.73,48.54,1.3,83.3-6.41,34.62-21.9,181.5-22.06,182.98l-.07.63-32.4-2.7Z"/>
    <path class="cls-3" d="m43.33,225.62l-.46-.18,15.03-137.88.44-.11c15.28-3.82,35.86-3.49,46.76-2.95,3.41.18,6.23,2.72,6.75,6.09l18.07,119.01-.15.21c-12.49,17.85-31.58,22.7-48.65,22.7-12.9-.17-25.67-2.49-37.8-6.89Z"/>
    <path class="cls-2" d="m114.91,265.9l-.54-.05-9.6-181.72,29.17,6.59c6.6,1.51,10.98,7.79,10.13,14.5l-3.78,30.21,1.3,53.14c.9,3.26,15.67,57.34,7.47,71.42-.84,1.61-2.31,2.81-4.06,3.29-7.88,1.89-15.96,2.84-24.06,2.82-3.68,0-5.96-.2-6.01-.2Z"/>
    <path class="cls-2" d="m29,267.13c-2.87-1.29-5-3.82-5.78-6.87-1.9-7.65,4.52-17.28,5.44-18.61l7.76-73.73-11.54-68.11c-.8-4.73,2.38-9.21,7.11-10.01.16-.03.33-.05.49-.07l32.88-3.67-1.67,70.07c14.11,47.7-16.62,116.49-16.93,117.18l-.17.38h-.42c-.17,0-4.2-.07-17.16-6.56Z"/>
    <circle class="cls-5" cx="81.28" cy="40.18" r="31.88"/>
    <path class="cls-5" d="m117.79,233.01c-1.08-6.63,3.42-12.89,10.05-13.97.71-.12,1.42-.17,2.14-.16l11.04-25.53,17.15,2.92-16.09,35.84c-.55,6.74-6.45,11.76-13.19,11.21-5.64-.46-10.23-4.72-11.1-10.3h0Z"/>
    <path class="cls-2" d="m133.33,209.62l9.11-54.68-15.57-25.94,3.97-37.01.88-.22c6.08-1.5,12.39,1.46,15.11,7.11l25.43,53.07.1.21-18.47,72.55-20.57-15.08Z"/>
    <path class="cls-1" d="m102.18,65.89c.73.21,3.79-3.24,7.14-7.39,7.12-8.74,10.05-20.16,8.02-31.25-.05-.25-.09-.48-.14-.7-1.11-5.28-6.15-10.14-11.42-9.03.4-4.68-2.75-9.08-6.75-11.55s-8.72-3.38-13.34-4.26c-5.26-.99-10.59-1.99-15.94-1.65-5.15.32-10.15,1.91-14.53,4.64-10.91,7.18-16.09,20.48-12.89,33.15,6.72-7.63,14.68-15.93,26.18-12.62,2.61.78,5.04,2.05,7.16,3.74,6.99,5.49,10.51,13.58,13.91,21.48,1.7-4.32,8-5.95,11.58-2.99,2.3,1.9,3.24,5.06,3.16,8.04-.24,2.98-.93,5.9-2.04,8.67"/>
    <path class="cls-1" d="m98.07,185h-1.5v-5.9c0-3.64-2.96-6.59-6.6-6.6h-18.8c-3.64,0-6.59,2.96-6.6,6.6v40.8c0,3.64,2.96,6.59,6.6,6.6h18.8c3.64,0,6.59-2.96,6.6-6.6v-27.9h1.5v-7Z"/>
    <circle class="cls-4" cx="81.07" cy="192" r="4"/>
    <path class="cls-5" d="m84.33,207.94c-2.87-6.08-10.13-8.67-16.21-5.8-.65.31-1.27.67-1.85,1.09l-23.58-14.76-12.46,12.14,33.59,20.37c4.27,5.24,11.98,6.02,17.22,1.74,4.38-3.58,5.74-9.69,3.29-14.78Z"/>
    <path class="cls-2" d="m0,179.83l21.58-81.51c1.18-4.37,5.49-7.11,9.95-6.32l7.42,1.35,7.9,43.47-16.08,36.64,29.08,17.46-4.09,32.71L0,179.83Z"/>
  </g>
</svg>