<?xml version="1.0" encoding="UTF-8"?>
<svg id="Layer_2" data-name="Layer 2" xmlns="http://www.w3.org/2000/svg" viewBox="0 0 631.72 560.95">
  <defs>
    <style>
      .cls-1 {
        fill: #2f2e41;
      }

      .cls-1, .cls-2, .cls-3, .cls-4, .cls-5, .cls-6 {
        stroke-width: 0px;
      }

      .cls-2 {
        fill: #3f3d56;
      }

      .cls-3 {
        fill: #93ad92;
      }

      .cls-4 {
        fill: #fff;
      }

      .cls-5 {
        fill: #ffb8b8;
      }

      .cls-6 {
        fill: #ffb6b6;
      }
    </style>
  </defs>
  <g id="Layer_1-2" data-name="Layer 1">
    <path id="e3ba7b84-95ab-4be0-b084-77760c6da15d-77" class="cls-1" d="m614.08,106.88l-2.87.37,19.25-72.25c1.42-4.82,1.65-9.92.67-14.85-.85-4.03-2.94-7.69-5.99-10.46-3.19-2.77-7.1-4.59-11.28-5.23-5.09-.79-10.28-.56-15.28.68h0l-130.83,29.79c-4.57,1.11-8.94,2.91-12.96,5.33-4.38,2.6-8.45,5.69-12.13,9.2-3.79,3.58-7.2,7.55-10.16,11.85-2.89,4.16-5.25,8.66-7.02,13.41h0l-136.89,376.5c-2.28,6.19-3.75,12.65-4.4,19.21-.6,5.83-.32,11.71.84,17.46.96,4.99,2.98,9.72,5.91,13.87,2.69,3.78,6.47,6.63,10.84,8.18h0l138.23,47.59c6.14,2.09,12.73,2.48,19.08,1.14,6.78-1.48,13.16-4.42,18.7-8.61,6.21-4.67,11.55-10.39,15.78-16.91,4.68-7.16,8.18-15.03,10.36-23.31h0l92.67-347.81,2.91-.23,14.56-54.9Z"/>
    <path id="b5993d63-c6a8-428b-8f96-914fd0c3ef98-78" class="cls-2" d="m604.08,102.88l-2.87.37,19.25-72.25c1.42-4.82,1.65-9.92.67-14.85-.85-4.03-2.94-7.69-5.99-10.46-3.19-2.77-7.1-4.59-11.28-5.23-5.09-.79-10.28-.56-15.28.68h0l-130.83,29.79c-4.57,1.11-8.94,2.91-12.96,5.33-4.38,2.6-8.45,5.69-12.13,9.2-3.79,3.58-7.2,7.55-10.16,11.85-2.89,4.16-5.25,8.66-7.02,13.41h0l-136.89,376.5c-2.28,6.19-3.75,12.65-4.4,19.21-.6,5.83-.32,11.71.84,17.46.96,4.99,2.98,9.72,5.91,13.87,2.69,3.78,6.47,6.63,10.84,8.18h0l138.23,47.59c6.14,2.09,12.73,2.48,19.08,1.14,6.78-1.48,13.16-4.42,18.7-8.61,6.21-4.67,11.55-10.39,15.78-16.91,4.68-7.16,8.18-15.03,10.36-23.31h0l92.67-347.81,2.91-.23,14.56-54.9Z"/>
    <path id="f76bb9a3-d246-4a39-a954-55c4fdcd575d-79" class="cls-4" d="m587.43,10.57l-19.23,4.21c.21,1.66.04,3.35-.48,4.95-.6,1.86-1.47,3.62-2.58,5.23-2.5,3.65-5.84,6.66-9.73,8.76-.47.25-.93.48-1.4.69-.46.21-.93.4-1.39.57-.46.17-.92.32-1.38.45s-.91.24-1.35.33l-75.19,15.23c-1.4.32-2.85.31-4.23-.05-1.12-.3-2.1-.96-2.8-1.89-.7-.99-1.1-2.17-1.14-3.38-.06-1.55.19-3.09.72-4.55.13-.39.29-.79.46-1.19s.36-.8.56-1.19c.2-.4.42-.8.66-1.19s.49-.79.75-1.19l-14.24,3.12c-3.43.8-6.71,2.13-9.74,3.94-3.3,1.95-6.38,4.26-9.16,6.9-2.87,2.7-5.44,5.69-7.67,8.93-2.18,3.13-3.95,6.53-5.27,10.11l-136.63,379.77c-1.7,4.67-2.79,9.53-3.25,14.48-.42,4.37-.17,8.77.74,13.06.76,3.71,2.3,7.21,4.54,10.27,2.05,2.77,4.9,4.85,8.17,5.93h0l139.24,45.24c4.59,1.47,9.5,1.69,14.21.64,5.01-1.15,9.72-3.36,13.81-6.48,4.57-3.46,8.51-7.69,11.63-12.5,3.46-5.28,6.05-11.08,7.69-17.18h0l127.23-469.48c1.07-3.58,1.27-7.37.58-11.05-.6-3.01-2.12-5.76-4.36-7.87-2.34-2.1-5.24-3.5-8.34-4.02-3.79-.64-7.68-.5-11.42.39Z"/>
    <polygon class="cls-6" points="148.49 547.99 162.46 547.99 169.1 494.13 148.49 494.13 148.49 547.99"/>
    <path class="cls-1" d="m189.39,560.95h-43.88s0-16.95,0-16.95h29c8.22,0,14.89,6.66,14.89,14.88v2.07h0Z"/>
    <polygon class="cls-6" points="8.87 529.89 21.1 536.62 52.87 492.62 34.82 482.7 8.87 529.89"/>
    <path class="cls-1" d="m38.46,560.95L0,539.81h0l8.17-14.86h0l25.41,13.97c7.2,3.96,9.83,13.01,5.87,20.22l-1,1.81h0Z"/>
    <path class="cls-1" d="m147.84,518.09c-2.57,0-4.75-1.91-5.08-4.47l-17.46-134.56c-.2-1.56-1.63-2.66-3.19-2.46-.9.12-1.69.65-2.13,1.45l-72.78,132.04c-1.24,2.23-3.93,3.21-6.31,2.32l-15.86-6.04c-2.64-1.01-3.97-3.97-2.96-6.61.01-.04.03-.07.04-.11l50.41-123.85c.13-.31.21-.64.26-.98,6.83-52.85,24.2-79.73,29.36-86.71.77-1.04.98-2.39.56-3.61l-.71-2.13c-.58-1.72-.2-3.62.99-4.99,18.6-21.19,51.02-9.63,51.35-9.51l.16.06.1.14c36.35,49.85,22.91,211.78,19.85,243.73-.24,2.48-2.22,4.43-4.71,4.61l-21.5,1.66c-.13.01-.27.01-.4.01Z"/>
    <circle class="cls-5" cx="137.98" cy="113.11" r="31.07"/>
    <path class="cls-3" d="m89.94,310.85l91.44,8.32c-7.97-27.72-15.28-55.34-9.32-82.87,7.56-24.57,8.26-38.18-11.68-49.76l-13.47-30.04-24.37-.89-11.88-3.26c-9.6,15.44-13.53,33.73-11.11,51.75,5.17,39.18,3.77,75.53-9.61,106.73Z"/>
    <path class="cls-1" d="m103.82,172.18l-9.2-42.21c-1.92-9.99-1.44-20.3,1.4-30.07.31-1,.68-1.98,1.12-2.94,5.19-11.31,16.17-18.84,28.59-19.61,20.9-1.44,23.97.76,24.73,1.85,11.81-.48,20.97,4.09,25.15,12.53,1.55,3.17.23,6.99-2.93,8.53-.34.16-.69.3-1.05.4-5.84,1.68-14.04,3.55-20.2,3-12.33,14.79-7.29,41.9,5.22,58.05l.49.63-12.4,2.54-14.41-20.06c-.69-.96-2.02-1.18-2.98-.49-.68.49-1.02,1.34-.85,2.16l4.37,21.25-27.06,4.43Z"/>
    <path class="cls-5" d="m162.01,335.42l-14.71-80.4,1.04-49.72-33.15-1.04,6.21,55.93,21.43,77.56c-4.91,5.97-4.06,14.8,1.92,19.72s14.8,4.06,19.72-1.92c4.91-5.97,4.06-14.8-1.92-19.72-.18-.15-.36-.29-.55-.43h0Z"/>
    <path class="cls-3" d="m113.12,209.45c12.01-4.57,25.28-4.57,37.29,0l-2.07-41.43c0-9.15-7.42-16.57-16.57-16.57h0c-9.15,0-16.57,7.42-16.57,16.57h0s-2.07,41.43-2.07,41.43Z"/>
  </g>
</svg>