<?xml version="1.0" encoding="UTF-8"?>
<svg id="Layer_2" data-name="Layer 2" xmlns="http://www.w3.org/2000/svg" viewBox="0 0 214.92 391.92">
  <defs>
    <style>
      .cls-1 {
        fill: #2f2e41;
      }

      .cls-1, .cls-2, .cls-3, .cls-4, .cls-5 {
        stroke-width: 0px;
      }

      .cls-2 {
        fill: #3f3d56;
      }

      .cls-3 {
        fill: #ccc;
      }

      .cls-4 {
        fill: #93ad92;
      }

      .cls-5 {
        fill: #ffb8b8;
      }
    </style>
  </defs>
  <g id="Layer_1-2" data-name="Layer 1">
    <path class="cls-2" d="m199.35,184.04l-152.65,32.18c-9.18,1.93-18.19-3.95-20.14-13.13L.37,78.82c-1.93-9.18,3.95-18.19,13.13-20.14L166.14,26.5c9.18-1.93,18.19,3.95,20.14,13.13l26.19,124.27c1.93,9.18-3.95,18.19-13.13,20.14ZM13.91,60.63c-8.1,1.72-13.28,9.67-11.58,17.77l26.19,124.27c1.72,8.1,9.67,13.28,17.77,11.58l152.65-32.18c8.1-1.72,13.28-9.67,11.58-17.77l-26.19-124.27c-1.72-8.1-9.67-13.28-17.77-11.58L13.91,60.63Z"/>
    <path id="ea648e8d-1b31-4ae2-9566-f54bfd0d94c9-283" class="cls-3" d="m156.66,67.48l-77.04,16.24c-1.4.32-2.81-.49-3.23-1.86-.38-1.4.46-2.85,1.86-3.22.05-.01.09-.02.14-.03l78.42-16.53c3.06,1.73,2.09,4.94-.15,5.41h0Z"/>
    <path id="b4f9d9e0-1a47-44a2-8a19-0d88a6e9c18f-284" class="cls-3" d="m159.5,80.99l-77.04,16.24c-1.4.32-2.81-.49-3.23-1.86-.38-1.4.46-2.85,1.86-3.22.05-.01.09-.02.14-.03l78.42-16.53c3.06,1.73,2.09,4.94-.15,5.41h0Z"/>
    <path id="e168965a-63e1-4676-8cbb-3e09d33a4a3f-285" class="cls-3" d="m67.43,108.43l-23.51,4.96c-1.6.34-3.17-.69-3.51-2.29l-5.85-27.75c-.34-1.6.69-3.17,2.29-3.51l23.51-4.96c1.6-.33,3.17.69,3.51,2.29l5.85,27.75c.34,1.6-.69,3.17-2.29,3.51h0Z"/>
    <path id="af0ff97e-1a3a-4f6f-a511-2c807a938985-286" class="cls-3" d="m165.11,108.7l-117.57,24.78c-1.4.32-2.81-.49-3.23-1.86-.38-1.4.46-2.85,1.86-3.22.05-.01.09-.02.14-.03l118.96-25.07c3.06,1.73,2.09,4.94-.15,5.41h0Z"/>
    <path id="e60f2d91-ad3b-421b-94cb-3aa0f5092f21-287" class="cls-3" d="m167.96,122.22l-117.57,24.78c-1.4.32-2.81-.49-3.23-1.86-.38-1.4.46-2.85,1.86-3.22.05-.01.09-.02.14-.03l118.96-25.07c3.06,1.73,2.09,4.94-.15,5.41h0Z"/>
    <path id="a5554f8b-57e8-4c3b-815c-c76cc46b61b5-288" class="cls-3" d="m170.81,135.73l-117.57,24.78c-1.4.32-2.81-.49-3.23-1.86-.38-1.4.46-2.85,1.86-3.22.05-.01.09-.02.14-.03l118.96-25.07c3.06,1.73,2.09,4.94-.15,5.41Z"/>
    <path id="eee68bf7-fbe9-4bfc-85ae-b0141fb14f45-289" class="cls-3" d="m173.66,149.25l-117.57,24.78c-1.4.32-2.81-.49-3.23-1.86-.38-1.4.46-2.85,1.86-3.22.05-.01.09-.02.14-.03l118.96-25.07c3.06,1.73,2.09,4.94-.15,5.41h0Z"/>
    <path id="b9a7afa1-162f-46e2-88e2-f572ab59fc71-290" class="cls-3" d="m176.5,162.75l-117.57,24.78c-1.4.32-2.81-.49-3.23-1.86-.38-1.4.46-2.85,1.86-3.22.05-.01.09-.02.14-.03l118.96-25.07c3.06,1.73,2.09,4.94-.15,5.41h0Z"/>
    <path class="cls-5" d="m195.26,100.89c-.27.48-.5.99-.68,1.51l-48.13,11.94-8.37-8.66-14.73,10.93,13.33,16.78c2.21,2.78,6,3.77,9.29,2.43l52.23-21.34c4.67,3.44,11.24,2.44,14.68-2.23,3.44-4.67,2.44-11.24-2.23-14.68-4.67-3.44-11.24-2.44-14.68,2.23-.26.35-.49.72-.71,1.09h0Z"/>
    <path class="cls-5" d="m30.96,207.18c5.67-1.75,8.85-7.77,7.09-13.43-.19-.6-.43-1.19-.72-1.75l33.12-92.07-23-4.08-25.33,91.78c-5.11,3.08-6.76,9.72-3.68,14.83,2.58,4.28,7.75,6.23,12.51,4.73h0Z"/>
    <path class="cls-4" d="m66.26,116.27l-22.71-8.72c-2.48-.95-3.72-3.74-2.77-6.22.08-.22.19-.43.3-.64l11.92-21.13c2.69-6.88,10.45-10.28,17.33-7.59,6.85,2.68,10.26,10.39,7.62,17.25l-5.26,23.6c-.58,2.6-3.15,4.23-5.75,3.65-.23-.05-.46-.12-.68-.2h0Z"/>
    <polygon class="cls-5" points="117.52 380.03 129.78 380.03 135.61 332.74 117.52 332.75 117.52 380.03"/>
    <path class="cls-1" d="m114.4,376.03h24.14s0,0,0,0c8.5,0,15.39,6.89,15.39,15.39h0v.5h-39.53s0-15.89,0-15.89Z"/>
    <polygon class="cls-5" points="48.52 380.03 60.78 380.03 66.61 332.74 48.52 332.75 48.52 380.03"/>
    <path class="cls-1" d="m45.4,376.03h24.14s0,0,0,0c8.5,0,15.39,6.89,15.39,15.39h0v.5h-39.53s0-15.89,0-15.89Z"/>
    <path class="cls-1" d="m61.38,361h-15.51c-2.49,0-4.5-2.02-4.5-4.5,0-.07,0-.14,0-.21l7.37-158.33h.46s74.92-1.97,74.92-1.97l14.66,158.42c.23,2.47-1.58,4.67-4.05,4.91-.02,0-.04,0-.07,0l-17.43,1.39c-2.27.18-4.31-1.36-4.77-3.58l-22.29-112.78c-.13-.71-.75-1.22-1.47-1.2h0c-.72-.02-1.35.5-1.47,1.21l-21.44,113c-.42,2.11-2.27,3.63-4.42,3.63Z"/>
    <circle class="cls-5" cx="89.79" cy="32.18" r="24.56"/>
    <path class="cls-4" d="m81.56,216.51c-11.71,0-23.73-3.08-33.7-12.17-1.08-.98-1.62-2.41-1.47-3.85,1.07-9.59,6.24-59.08,3.33-92.14-1.15-12.52,3.64-24.85,12.96-33.3,9.15-8.43,21.73-12.07,33.96-9.83h0c.31.05.61.11.92.17,19.66,3.81,33.33,22,31.78,42.33-2.26,29.66-4.28,69.78-1.1,92.47.27,1.9-.7,3.77-2.41,4.64-7.22,3.65-25.33,11.7-44.26,11.7Z"/>
    <path class="cls-4" d="m113.61,118.04c-1.17-.78-1.94-2.02-2.11-3.41l-2.99-23.99c-1.98-7.12,2.18-14.49,9.3-16.48,7.09-1.97,14.44,2.15,16.46,9.23l9.86,22.16c1.08,2.43-.01,5.28-2.44,6.36-.22.1-.44.18-.67.24l-23.44,6.52c-1.35.38-2.8.15-3.96-.63Z"/>
    <path class="cls-1" d="m81.22,56.4c-2.32.04-4.63-.37-6.8-1.23-.95-.37-1.94-.67-2.89-1.03-8.39-3.24-13.91-12.17-14.11-21.16s4.46-17.71,11.37-23.46S84.66.81,93.62.12c9.66-.74,20.53,1.71,25.93,9.76,1.44,2.14,2.44,4.74,1.59,7.32-.25.78-.71,1.48-1.32,2.03-2.41,2.14-4.81.53-7.27.39-3.38-.2-6.41,2.54-7.5,5.74s-.61,6.73.27,9.99c.67,1.97,1.09,4.01,1.26,6.08.14,2.11-.81,4.14-2.53,5.38-2.11,1.28-4.88.54-6.99-.74s-3.94-3.04-6.22-3.98-5.34-.73-6.67,1.35c-.42.76-.71,1.58-.84,2.44-1.19,5.42-.92,5.1-2.11,10.52h0Z"/>
  </g>
</svg>