<?xml version="1.0" encoding="UTF-8"?>
<svg id="Layer_2" data-name="Layer 2" xmlns="http://www.w3.org/2000/svg" viewBox="0 0 213.37 382.69">
  <defs>
    <style>
      .cls-1 {
        fill: #f2f2f2;
      }

      .cls-1, .cls-2, .cls-3, .cls-4, .cls-5 {
        stroke-width: 0px;
      }

      .cls-2 {
        fill: #2f2e41;
      }

      .cls-3 {
        fill: #93ad92;
      }

      .cls-4 {
        fill: #ffb6b6;
      }

      .cls-5 {
        isolation: isolate;
        opacity: .1;
      }
    </style>
  </defs>
  <g id="Layer_1-2" data-name="Layer 1">
    <g>
      <path class="cls-4" d="m135.53,60.58l-4.64,31.78-25.36.53v-27.73l30-4.58Z"/>
      <path class="cls-5" d="m135.53,60.58l-4.23,32.78-25.36.53v-27.73l29.59-5.58Z"/>
      <path class="cls-1" d="m187.04,237.34h8.98v145.3h-8.98v-145.3Z"/>
      <path class="cls-1" d="m151.11,237.34h8.98v145.3h-8.98v-145.3Z"/>
      <path class="cls-1" d="m95.1,237.34h8.98v145.3h-8.98v-145.3Z"/>
      <path class="cls-1" d="m78.2,237.34h8.98v145.3h-8.98v-145.3Z"/>
      <path class="cls-1" d="m200.77,235.22l12.22-63.48c2.25-11.67-5.87-22.8-17.67-24.23l-65.36-7.92s-8.98,73.44-8.98,69.74-89.03,9.25-55.74,27.74,123.11,13.21,135.52-1.85Z"/>
      <path class="cls-4" d="m55.18,343.56l-11.07,11.07-15.28,7.91,1.58,13.7,28.99-3.16,3.69-7.38-1.05-6.32,2.11-10.01-8.96-5.8Z"/>
      <path class="cls-2" d="m32.52,370.97l-.91-11.63L.37,374.13s-2.42,6.85,5.11,7.91,57.6,1.05,57.6-1.58,1.37-16.13,1.37-16.13l-30.36,8.75-1.58-2.11h0Z"/>
      <path class="cls-4" d="m58,281.56l-6.51,14.23-11.57,12.74,6.26,12.29,26.07-13.07.88-8.2-3.19-5.56-1.52-10.12-10.42-2.31Z"/>
      <path class="cls-2" d="m46.32,315.15l-4.9-10.58-24.13,24.76s.12,7.27,7.55,5.63,54.36-19.1,53.44-21.57-4.34-15.59-4.34-15.59l-25.4,18.79-2.22-1.42h0Z"/>
      <path class="cls-2" d="m172.51,194.28s11.62,30.12,3.17,42.27-48.08,19.02-48.08,19.02l-16.38,15.32-43.33,83.48-25.36-5.81,35.93-85.59s21.13-34.34,29.06-39.1c7.93-4.76,22.68-22.61,22.68-22.61l42.3-6.98h0Z"/>
      <path class="cls-2" d="m108.6,187.03l-19.64,3.47s-58.76-10.69-57.37,29.7,15.18,75.53,15.18,75.53l27.84-2.05-11.9-66.38,79.93-8.42-34.04-31.85h0Z"/>
      <path class="cls-4" d="m21.93,228.29c-5.02,5.97-6.01,13.4-2.21,16.6s10.95.95,15.97-5.03c2.04-2.36,3.48-5.17,4.21-8.2l20.96-25.56-10.13-8.26-21.44,24.9c-2.86,1.24-5.39,3.14-7.36,5.56h0Z"/>
      <path class="cls-4" d="m74.77,235.66c-5.59,5.44-7.31,12.74-3.85,16.29s10.8,2.03,16.39-3.42c2.26-2.14,3.98-4.8,5.01-7.74l23.39-23.36-9.26-9.23-23.81,22.65c-2.97.95-5.67,2.59-7.88,4.8h0Z"/>
      <path class="cls-3" d="m107.26,82h32.88l24.18,16.38-2.11,64.46s-4.42,16.19,10.57,31.17c8.98,8.98,5.81,14.27,5.81,14.27l-53.36,4.23-31.97-9.25,11.62-29.06-2.11-8.98s-21.66-15.32-17.96-31.17,8.45-48.61,8.45-48.61l14-3.43Z"/>
      <path class="cls-3" d="m130.24,176.84l23.78-78.2s12.15-4.23,17.44,6.34-1.36,50.99-1.36,50.99l-27.7,45.7-44.38,33.81-11.1-12.15,43.33-46.5Z"/>
      <path class="cls-3" d="m71.95,167.21l18.02-79.72s11.81-5.1,17.85,5.05,2.35,50.95,2.35,50.95l-24.3,47.6-41.8,36.95-11.95-11.31,39.83-49.52h0Z"/>
      <circle class="cls-4" cx="118.55" cy="49.77" r="23.62"/>
      <path class="cls-2" d="m120.44,18.01c-.68.4-1.6-.2-1.82-.97s.04-1.57.29-2.32l1.27-3.78c.9-2.68,1.86-5.45,3.82-7.49,2.96-3.08,7.65-3.86,11.88-3.29,5.43.73,10.79,3.67,13.31,8.53,2.52,4.86,1.45,11.64-3.11,14.68,6.5,7.45,8.77,15.76,8.41,25.64s-11.13,18.98-18.15,25.94c-1.57-.95-2.99-5.41-2.13-7.02s-.37-3.49.69-4.98,1.96.88.88-.6c-.68-.94,1.98-3.09.97-3.65-4.9-2.71-6.53-8.81-9.61-13.49-3.71-5.64-10.06-9.46-16.79-10.09-3.7-.35-7.61.28-10.65,2.43s-5,5.99-4.3,9.64c-1.82-1.85-2.73-4.56-2.39-7.14s1.93-4.96,4.17-6.27c-1.36-4.51-.2-9.7,2.97-13.19s16.01-2.9,20.63-1.98"/>
      <path class="cls-2" d="m121.16,35.25c6.12.66,10.54,5.96,14.27,10.86,2.15,2.82,4.4,5.94,4.35,9.49-.05,3.59-2.45,6.66-3.6,10.06-1.87,5.56-.05,12.17,4.41,15.97-4.41.84-9.17-2.47-9.93-6.89-.89-5.15,3.02-10.11,2.55-15.31-.41-4.58-4.02-8.11-7.09-11.53-3.07-3.43-5.95-7.97-4.54-12.35"/>
    </g>
  </g>
</svg>