<?xml version="1.0" encoding="UTF-8"?>
<svg id="Layer_2" data-name="Layer 2" xmlns="http://www.w3.org/2000/svg" viewBox="0 0 242.42 368.14">
  <defs>
    <style>
      .cls-1 {
        fill: #f2f2f2;
      }

      .cls-1, .cls-2, .cls-3, .cls-4, .cls-5 {
        stroke-width: 0px;
      }

      .cls-2 {
        fill: #2f2e41;
      }

      .cls-3 {
        fill: #ccc;
      }

      .cls-4 {
        fill: #a0616a;
      }

      .cls-5 {
        isolation: isolate;
        opacity: .1;
      }
    </style>
  </defs>
  <g id="Layer_1-2" data-name="Layer 1">
    <g>
      <g>
        <path class="cls-1" d="m26.33,368.08h-8.98v-145.3h8.98v145.3Z"/>
        <path class="cls-1" d="m62.26,368.08h-8.98v-145.3h8.98v145.3Z"/>
        <path class="cls-1" d="m118.27,368.08h-8.98v-145.3h8.98v145.3Z"/>
        <path class="cls-1" d="m135.18,368.08h-8.98v-145.3h8.98v145.3Z"/>
        <path class="cls-1" d="m12.6,220.67L.37,157.19c-2.25-11.67,5.87-22.8,17.67-24.23l65.36-7.92s8.98,73.44,8.98,69.74,89.03,9.25,55.74,27.74c-33.29,18.49-123.11,13.21-135.52-1.85h0Z"/>
      </g>
      <path class="cls-4" d="m158.19,329.01l11.07,11.07,15.28,7.91-1.58,13.7-28.99-3.16-3.69-7.38,1.05-6.32-2.11-10.01,8.96-5.8Z"/>
      <path class="cls-2" d="m180.85,356.42l.91-11.63,31.25,14.79s2.42,6.85-5.11,7.91-57.6,1.05-57.6-1.58-1.37-16.13-1.37-16.13l30.36,8.75,1.58-2.11h0Z"/>
      <path class="cls-4" d="m118.38,298.27l-8.01,13.45-3.9,16.76-13.67,1.84-4.07-28.88,6.24-5.39,6.39-.53,9.19-4.51,7.82,7.26Z"/>
      <path class="cls-2" d="m97.39,326.97l11.49-1.98-6.65,33.92s-6.05,4.03-8.92-3.01-15.19-55.58-12.64-56.22,15.29-5.29,15.29-5.29l-1.01,31.58,2.43,1.01Z"/>
      <path class="cls-4" d="m83.66,46.58l-1.59,32.23,25.36.53v-27.73l-23.78-5.03Z"/>
      <path class="cls-5" d="m83.66,46.58l-1.59,32.23,25.36.53v-27.73l-23.78-5.03Z"/>
      <path class="cls-2" d="m40.86,179.73s-11.62,30.12-3.17,42.27,48.08,19.02,48.08,19.02l16.38,15.32,43.32,83.48,25.36-5.81-35.93-85.59s-21.13-34.34-29.06-39.1c-7.93-4.76-22.68-22.61-22.68-22.61l-42.3-6.98h0Z"/>
      <path class="cls-2" d="m112.72,182.37l16.28,11.53s57.69,15.42,39.2,51.35-45.97,61.82-45.97,61.82l-24.3-13.74,39.1-54.95-68.69-41.74,44.38-14.27h0Z"/>
      <path class="cls-4" d="m233.72,179.43c6.81,3.81,10.35,10.42,7.93,14.75-2.43,4.33-9.91,4.75-16.72.93-2.74-1.49-5.08-3.61-6.84-6.19l-28.63-16.52,6.56-11.31,28.85,15.73c3.12.15,6.15,1.04,8.85,2.6Z"/>
      <path class="cls-4" d="m138.6,221.11c5.59,5.44,7.31,12.74,3.85,16.29s-10.8,2.03-16.39-3.42c-2.26-2.14-3.98-4.8-5.01-7.74l-23.39-23.36,9.26-9.23,23.81,22.65c2.97.95,5.67,2.59,7.88,4.8h0Z"/>
      <path class="cls-3" d="m106.12,67.45h-32.88l-24.18,16.38,2.11,64.46s4.42,16.19-10.57,31.17c-8.98,8.98-5.81,14.27-5.81,14.27l53.36,4.23,31.97-9.25-11.62-29.06,2.11-8.98s21.66-15.32,17.96-31.17c-3.7-15.85-8.45-48.61-8.45-48.61l-14-3.43Z"/>
      <path class="cls-3" d="m83.13,162.29l-23.78-78.2s-12.15-4.23-17.44,6.34,1.36,50.99,1.36,50.99l27.7,45.7,44.38,33.81,11.1-12.15-43.32-46.5h0Z"/>
      <path class="cls-3" d="m165.37,139.92l-44.99-68.23s-12.85-.6-14.92,11.03,15.78,48.5,15.78,48.5l39.53,35.96,52.15,19.83,7.19-14.8-54.74-32.28h0Z"/>
      <circle class="cls-4" cx="98.72" cy="39.45" r="22.19"/>
      <path class="cls-2" d="m87.34,2.3s-8.9-6.42-16.8,7.41c-5.4,9.45-8.27,27.44-9.54,37.89-.59,4.81,1.91,9.47,6.23,11.66l28.02,14.21s-10.38-39.54,3.95-45.47c14.33-5.93,13.84-4.45,13.84-4.45,0,0,11.37,24.71-3.46,35.58l12.35,7.91s8.4-46.45-6.92-55.35c-15.32-8.9-11.86-15.32-27.67-9.39h0Z"/>
    </g>
  </g>
</svg>