<svg id="Layer_1" data-name="Layer 1" xmlns="http://www.w3.org/2000/svg" xmlns:xlink="http://www.w3.org/1999/xlink" viewBox="0 0 897.56 211.53"><defs><style>.cls-1{fill:url(#linear-gradient);}.cls-2{fill:url(#linear-gradient-2);}.cls-3{fill:url(#radial-gradient);}.cls-4{fill:#3d3935;}</style><linearGradient id="linear-gradient" x1="328.2" y1="1237.71" x2="416.2" y2="1196.75" gradientTransform="matrix(-0.76, -0.65, -0.65, 0.76, 1217.99, -583.6)" gradientUnits="userSpaceOnUse"><stop offset="0" stop-color="#ed1c24"/><stop offset="0.09" stop-color="#e6181f"/><stop offset="0.22" stop-color="#d10e12"/><stop offset="0.34" stop-color="#b70000"/><stop offset="0.48" stop-color="#ed1c24"/></linearGradient><linearGradient id="linear-gradient-2" x1="271.88" y1="1283.92" x2="322.1" y2="1261.2" gradientTransform="matrix(-0.76, -0.65, -0.65, 0.76, 1217.99, -583.6)" gradientUnits="userSpaceOnUse"><stop offset="0.15" stop-color="#ed1c24"/><stop offset="0.85" stop-color="#7d0000"/></linearGradient><radialGradient id="radial-gradient" cx="-298.69" cy="234.41" r="57.9" gradientTransform="translate(135.81 -186.5) rotate(-49.49)" gradientUnits="userSpaceOnUse"><stop offset="0" stop-color="#ed1c24"/><stop offset="0.12" stop-color="#e6181f"/><stop offset="0.31" stop-color="#d10e12"/><stop offset="0.49" stop-color="#b70000"/></radialGradient></defs><title>Propel_Logo-H</title><path class="cls-1" d="M209,74.45l-126.29,58a9.55,9.55,0,0,0,1.39,17.87l57.62,16.23,25,54.38a9.54,9.54,0,0,0,17.86-1.41l37.56-133.8A9.55,9.55,0,0,0,209,74.45Z" transform="translate(-77.13 -72.63)"/><path class="cls-2" d="M166.74,220.92l-25-54.38s46.43,10.36,42.89,53A9.54,9.54,0,0,1,166.74,220.92Z" transform="translate(-77.13 -72.63)"/><path class="cls-3" d="M92.34,224.32l10.33-36.8a17.69,17.69,0,0,1,28.52-8.66h0a17.68,17.68,0,0,1-4.11,29.51Z" transform="translate(-77.13 -72.63)"/><path class="cls-4" d="M777.41,181.09v-.47c0-37.12,27.21-66.49,65.73-66.49,45,0,65.72,32.19,65.72,69.54,0,2.82,0,3.05-.24,7.77H823c3.61,12.19,12,18.61,26.17,18.61,10.1,0,20.05-1.59,29-9a2.9,2.9,0,0,1,3.84,0l21.38,19.87a2.84,2.84,0,0,1,.23,3.95C891,239.09,872,247.11,847.23,247.11,806.3,247.11,777.41,220.56,777.41,181.09Zm88.78-16.24c-1.62-9.55-9.7-15.68-21.7-15.68-11.54,0-19.39,6.33-21.7,15.68Z" transform="translate(-77.13 -72.63)"/><path class="cls-4" d="M753.68,133.44q-16.89-18.25-43.15-18.25c-28.17,0-45,15.73-45,15.73l-26-11.78a2.85,2.85,0,0,0-4,2.59v125l.28,34.63a2.85,2.85,0,0,0,4,2.56l37-17a2.84,2.84,0,0,0,1.66-2.59v-29.6q12.27,11.49,32,11.5,26.26,0,43.15-18.51t16.88-47.27Q770.56,151.7,753.68,133.44Zm-34.4,66.78a24,24,0,0,1-17.26,7,23.54,23.54,0,0,1-17.13-7q-7.12-7-7.13-19.75T684.89,161a25.11,25.11,0,0,1,34.52.25q7.13,7,7.12,19.51T719.28,200.22Z" transform="translate(-77.13 -72.63)"/><path class="cls-4" d="M609.32,134.07q20,18.88,20,46.65t-20,46.65q-20,18.88-48.27,18.88-28.51,0-48.27-18.88T493,180.72q0-27.76,19.76-46.65t48.27-18.88Q589.31,115.19,609.32,134.07ZM543.8,162Q537,169.21,537,180.72q0,11.76,6.76,18.88t17.5,7.13a22.69,22.69,0,0,0,17.14-7.25q6.87-7.26,6.87-18.76,0-11.26-6.87-18.64a22.48,22.48,0,0,0-17.14-7.37Q550.55,154.71,543.8,162Z" transform="translate(-77.13 -72.63)"/><path class="cls-4" d="M479.71,116.18c-13,0-32.71,5.09-40.71,15.26v-.19l-26-12.06a2.85,2.85,0,0,0-4.05,2.58V247.86a2.85,2.85,0,0,0,4.08,2.57l37.31-17.79a2.86,2.86,0,0,0,1.62-2.57V186.22q0-15.76,7.51-22.89t22.26-7.13h7.4a2.85,2.85,0,0,0,2.85-2.85V120.27a2.8,2.8,0,0,0-2-2.72A36.93,36.93,0,0,0,479.71,116.18Z" transform="translate(-77.13 -72.63)"/><path class="cls-4" d="M382,133.44q-16.89-18.25-43.16-18.25c-28.16,0-45,15.73-45,15.73l-26-11.78a2.84,2.84,0,0,0-4,2.59v125l.28,34.63a2.85,2.85,0,0,0,4,2.56l37-17a2.84,2.84,0,0,0,1.66-2.59v-29.6q12.27,11.49,32,11.5,26.28,0,43.16-18.51t16.87-47.27Q398.86,151.7,382,133.44Zm-34.4,66.78a24,24,0,0,1-17.26,7,23.54,23.54,0,0,1-17.13-7q-7.12-7-7.13-19.75T313.2,161a25.11,25.11,0,0,1,34.52.25q7.13,7,7.12,19.51T347.59,200.22Z" transform="translate(-77.13 -72.63)"/><path class="cls-4" d="M973.08,221.53l-11.36-5.26V92.87a2.87,2.87,0,0,0-1.65-2.58L922.76,72.9a2.85,2.85,0,0,0-4,2.59V247a2.86,2.86,0,0,0,4,2.6l31.37-14.27h0l.51-.24,5.43-2.47a1.94,1.94,0,0,0,.24-.15l12.79-5.92A2.78,2.78,0,0,0,973.08,221.53Z" transform="translate(-77.13 -72.63)"/></svg>