<?xml version="1.0" encoding="UTF-8"?>
<svg id="Layer_2" data-name="Layer 2" xmlns="http://www.w3.org/2000/svg" viewBox="0 0 343.61 137.36">
  <defs>
    <style>
      .cls-1 {
        fill: #93ad92;
      }

      .cls-1, .cls-2 {
        stroke-width: 0px;
      }

      .cls-2 {
        fill: #fff;
      }
    </style>
  </defs>
  <g id="Layer_1-2" data-name="Layer 1">
    <path class="cls-1" d="m66.18,137.36c-.1,0-.2,0-.3,0-2.37-.09-4.55-1.32-5.83-3.32-4.74-7.09-10.56-13.39-17.25-18.68-4.05-3.24-8.28-6.24-12.37-9.15-10.55-7.5-20.49-14.57-26.01-24.33C-7.6,60.57,6.56,30.91,26.8,17.61,49.49,2.69,79.35.35,108.23.05,111.23.02,114.23,0,117.24,0h0c52.04.02,103.96,4.77,155.14,14.19,17.02,3.14,34.83,6.99,49.15,16.32,14.23,9.28,22.88,23.89,22.03,37.23-1.23,19.47-21.87,34.02-40.66,37.82-17.91,3.62-36.52,1.17-56.22-1.42-4.35-.57-8.85-1.16-13.29-1.68-48.33-5.59-139.11,11.63-142.95,12.37l-3.81.73-14.79,19.03c-1.35,1.76-3.44,2.79-5.66,2.78Z"/>
    <path class="cls-2" d="m281.39,42.38H77.12c-2.45,0-4.44-1.99-4.44-4.45,0-2.45,1.99-4.44,4.44-4.44h204.26c2.45,0,4.44,1.99,4.44,4.45,0,2.45-1.99,4.44-4.44,4.44Z"/>
    <path class="cls-2" d="m281.39,69.66H77.12c-2.45,0-4.45-1.99-4.45-4.44,0-2.45,1.99-4.45,4.44-4.45h204.27c2.45,0,4.44,1.99,4.44,4.45,0,2.45-1.99,4.44-4.44,4.44Z"/>
    <path class="cls-2" d="m100.93,96.94h-23.8c-2.45,0-4.44-1.99-4.44-4.44s1.99-4.44,4.44-4.44h23.8c2.45,0,4.44,1.99,4.44,4.44s-1.99,4.44-4.44,4.44Z"/>
  </g>
</svg>