<?xml version="1.0" encoding="UTF-8"?>
<svg id="Layer_2" data-name="Layer 2" xmlns="http://www.w3.org/2000/svg" viewBox="0 0 272.91 495.72">
  <defs>
    <style>
      .cls-1 {
        fill: #f2f2f2;
      }

      .cls-1, .cls-2, .cls-3, .cls-4, .cls-5 {
        stroke-width: 0px;
      }

      .cls-2 {
        fill: #2f2e41;
      }

      .cls-3 {
        fill: #a0616a;
      }

      .cls-4 {
        fill: #93ad92;
      }

      .cls-5 {
        isolation: isolate;
        opacity: .1;
      }
    </style>
  </defs>
  <g id="Layer_1-2" data-name="Layer 1">
    <g>
      <path id="uuid-070545a9-7559-45f6-9b62-076b2f028fa8-356" class="cls-3" d="m58.38,87.02c-6.8-6.3-9-14.9-5-19.2s12.8-2.7,19.5,3.6c2.7,2.5,4.9,5.6,6.1,9.1l28.4,27.1-13,13.1-26.5-28.2c-3.5-1.1-6.8-3-9.5-5.5Z"/>
      <path class="cls-4" d="m201.38,91.22l-54.8,58.3s-12.3,12.2-32.6-5.4-42.8-46.4-42.8-46.4l12.6-13.7,22.4,20s13.3,5.3,14.2,8.8-1.7,4.9,2.5,3.8,4.2-3.6,4.5.2-2.3,8.1,2.5,3.9,6.2-1.7,6.2-1.7l35-46.4s22.6-17.9,29.1-1.9c6.7,16,1.2,20.5,1.2,20.5h0Z"/>
    </g>
    <rect class="cls-2" x="155.68" y="25.22" width="52.8" height="78"/>
    <polygon class="cls-3" points="196.58 79.42 194.78 57.02 170.18 57.02 164.78 80.72 196.58 79.42"/>
    <polygon class="cls-5" points="196.58 79.42 194.78 57.02 170.18 57.02 164.78 80.72 196.58 79.42"/>
    <circle class="cls-3" cx="178.58" cy="37.32" r="26.9"/>
    <path class="cls-2" d="m171.78,9.02s0-11,10.2-8.7,13.4,6.3,13.4,6.3c0,0,3.9,6.3,10.2,7.1,6.3.8,11.8,18.9,11,22.8s-4.7,14.2.8,18.9,13.4,11.8,11,18.9-9.5,25.2-9.5,25.2c0,0,19.8,2.9,18.2,15.2,0,0-9.5-7.4-22.1-7.4s-11-22.9-11-22.9c0,0-.8-14.2-3.2-18.1-2.4-3.9.8-26-11-37.8-11.7-11.6-18-19.5-18-19.5h0Z"/>
    <path class="cls-2" d="m174.98,6.72s-15,3.2-20.5,18.1c-5.5,14.9-2.7,17.8-2.7,17.8,0,0-1.2,9-7.9,12.2-6.7,3.2-1.2,16.6-1.2,16.6,0,0-1.6,13.4-22.8,18.1-21.3,4.7,26.7,41,26.7,41,0,0-3.4-17.1,18.6-17.9,22.1-.8-4.3-41.2-4.3-41.2l-2.4-26s4.7-29.9,18.9-33.9-2.4-4.8-2.4-4.8h0Z"/>
    <g>
      <polygon class="cls-3" points="194.58 484.72 176.28 484.72 167.58 414.12 194.58 414.12 194.58 484.72"/>
      <path class="cls-2" d="m131.88,484.32h0c-.6,1-.9,4.1-.9,5.2h0c0,3.4,2.8,6.2,6.2,6.2h56.7c2.3,0,4.2-1.9,4.2-4.2v-2.4s2.8-7.1-3-15.8c0,0-7.2,6.8-17.9-3.9l-3.2-5.7-22.9,16.7-12.7,1.6c-2.6.3-5.1-.1-6.5,2.3h0Z"/>
    </g>
    <g>
      <polygon class="cls-3" points="266.78 463.22 249.78 470.12 214.78 408.22 239.78 397.92 266.78 463.22"/>
      <path class="cls-2" d="m208.58,486.72h0c-.2,1.1.7,4.1,1.2,5.1h0c1.3,3.2,4.9,4.7,8.1,3.4l52.4-21.6c2.2-.9,3.2-3.4,2.3-5.5l-.9-2.2s-.1-7.6-8.8-13.5c0,0-4,9.1-18,3.2l-5.1-4.1-14.8,24.2-11.1,6.3c-2.5,1.4-4.9,1.9-5.3,4.7h0Z"/>
    </g>
    <path class="cls-2" d="m202.98,242.52l-7.5,28.5,2,46.3,3.3,76.9.1,2.2.4,8.6,1.7,39.9h-36.8l-16.4-111.5-13-88.2,1.4-44.9.1-2.3s65.8-2.9,73,6.4-8.3,38.1-8.3,38.1h0Z"/>
    <path class="cls-2" d="m254.18,416.22l-6.2,3.2-23.1,12-3.4,1.7-20.2-28.1-51.5-71.6-13-88.2,1.4-44.9c5.8-1.9,10.5-2.6,12.8-1.5,10.6,5,10.1,37.6,10.1,37.6l6.5,28.8,29.9,52.1,56.7,98.9h0Z"/>
    <path class="cls-4" d="m162.98,79.52l.7-.2,32.3-9.1,25.8,35.1-17.2,73,6.4,29.3s-52.2-13.6-73-2.1c0,0-1.4-6.5,0-9.7s3.6-16.4,1.4-22.3,4.3-33.8,4.3-33.8c0,0-2.1-18.6,7.2-27.9s12.1-32.3,12.1-32.3h0Z"/>
    <path class="cls-4" d="m133.68,211.32l-113.4-56.4c-.6-.3-1.1-.7-1.5-1.1L1.08,132.92c-1.2-1.4-1.4-3.3-.6-5L33.68,58.32c.6-1.2,1.7-2.1,3-2.5s2.7-.1,3.8.7l80,54.9c1.6,1.1,2.4,3.2,1.8,5.1l-16.2,56.5c-.4,1.5.1,3.2,1.4,4.2l32.1,24.1c1.7,1.3,2.3,3.7,1.4,5.6l-1,2.2c-.5,1.1-1.5,2-2.7,2.4-.5.2-1,.3-1.5.3-.8,0-1.5-.1-2.1-.5Z"/>
    <path class="cls-1" d="m132.78,197.62l-31.6-26.3c-.3-.2-.5-.5-.6-.8-.3-.6-.3-1.3-.1-1.9l18-52.6c.5-1.4,0-2.9-1.2-3.7L42.38,61.02c-.8-.5-1.7-.7-2.6-.5s-1.7.9-2.1,1.7L6.08,126.42c-.5,1-.4,2.1.1,3,.1.1.1.3.2.4l15.9,21c.3.4.7.7,1.2,1l106,51.3c.4.2.9.3,1.4.3.8,0,1.7-.3,2.3-.9.1-.1.1-.2.2-.2.5-.6.8-1.4.7-2.2-.2-1-.6-1.9-1.3-2.5Z"/>
    <path class="cls-4" d="m18.38,122.52c.3,0,.5-.1.6-.4l25.7-51c.2-.4,0-.8-.3-1-.4-.2-.8,0-1,.3l-25.7,51c-.2.4,0,.8.3,1,.2,0,.3.1.4.1h0Z"/>
    <path class="cls-4" d="m31.98,131.12c.3,0,.5-.1.6-.4l25.7-51c.2-.4,0-.8-.3-1-.4-.2-.8,0-1,.3l-25.7,51c-.2.4,0,.8.3,1,.2,0,.3.1.4.1h0Z"/>
    <path class="cls-4" d="m43.48,138.22c.3,0,.5-.1.6-.4l25.7-51c.2-.4,0-.8-.3-1-.4-.2-.8,0-1,.3l-25.7,51c-.2.4,0,.8.3,1,.1.1.2.1.4.1h0Z"/>
    <g>
      <path id="uuid-7eb47ac4-3db4-4d62-bd0a-b38893e38622-358" class="cls-3" d="m109.78,196.02c-9.2-.7-16.4-6-15.9-11.9s8.3-10.1,17.5-9.4c3.7.2,7.3,1.3,10.5,3.2l39.1,3.4-2,18.3-38.3-5.3c-3.5,1.5-7.2,2-10.9,1.7h0Z"/>
      <path class="cls-4" d="m224.08,110.02l-6.4,79.8s-2,17.2-28.8,16.1-62.3-9.5-62.3-9.5l1.3-18.6,29.9,1.6s13.7-4.1,16.6-2,1.8,4.9,4.3,1.4,1.1-5.4,3.6-2.7,3.3,7.8,4.4,1.5,3.8-5.2,3.8-5.2l-1.6-58.1s6.5-28.1,21.6-19.6c15.2,8.4,13.6,15.3,13.6,15.3h0Z"/>
    </g>
  </g>
</svg>