<?xml version="1.0" encoding="UTF-8"?>
<svg id="Layer_1" data-name="Layer 1" xmlns="http://www.w3.org/2000/svg" viewBox="0 0 833.22 633.11">
  <defs>
    <style>
      .cls-1 {
        fill: #2f2e41;
      }

      .cls-1, .cls-2, .cls-3, .cls-4, .cls-5, .cls-6, .cls-7 {
        stroke-width: 0px;
      }

      .cls-2 {
        fill: #3f3d56;
      }

      .cls-3 {
        fill: #a0616a;
      }

      .cls-4 {
        fill: #93ad92;
      }

      .cls-5 {
        fill: #fff;
      }

      .cls-6 {
        fill: #ffb8b8;
      }

      .cls-7 {
        fill: #ffb6b6;
      }
    </style>
  </defs>
  <rect class="cls-2" x="159.66" y="466.77" width="145" height="51" rx="25.5" ry="25.5"/>
  <path class="cls-2" d="m250.66,504.77v42.43c-9.66.93-19.39.75-29-.56v-41.87h29Z"/>
  <path class="cls-1" d="m348.28,520.37c-.79.11-1.57.22-2.36.35-31.6,5.06-60.44,22.12-92.18,26.14-1.03.13-2.05.25-3.08.34-.44.04-.88.09-1.32.12-7.75-7.59-15.5-15.67-22.78-24.04-3.95-4.53-7.77-9.15-11.36-13.83-9.32-12.08-17.22-24.5-22.44-36.7.53-5.85-3.11-19.38-4.85-29.74h-.01c-.74-4.36-1.14-8.14-.77-10.57,2.12-14.02,13.57-12.41,17.09-26.15,3.18-2.64,6.56-5.01,10.11-7.11.59-.35,1.19-.7,1.81-1.05l38.2-26.4,14.6,14.32,22.22,21.8,24.08,23.61-20.44,20.65s17.08,19.69,37.05,45.94c5.36,7.05,10.93,14.58,16.43,22.32Z"/>
  <path class="cls-2" d="m677.66,504.77v122.47c-9.43,2.95-19.15,4.83-29,5.61v-128.08h29Z"/>
  <path class="cls-2" d="m621.16,494.77h94c14.08,0,25.5,11.42,25.5,25.5h0c0,14.08-11.42,25.5-25.5,25.5h-94c-14.08,0-25.5-11.42-25.5-25.5h0c0-14.08,11.42-25.5,25.5-25.5Z"/>
  <path class="cls-7" d="m486.5,560.53c-5.05-3.06-10.19-6.05-15.41-8.97-.64-.35-1.28-.71-1.92-1.06l3.44-1.47,9.28-3.99.09-.04.1.34,4.42,15.19Z"/>
  <path class="cls-1" d="m500.87,569.43c-1.65-1.05-3.29-2.08-4.94-3.1h-.01c-2.66-1.67-5.33-3.32-8-4.94-.47-.29-.94-.57-1.42-.86-5.05-3.06-10.19-6.05-15.41-8.97-.64-.35-1.28-.71-1.92-1.06-10.11-5.61-20.49-10.69-31.12-15.23-6.98-2.94-14.05-5.59-21.19-7.85h-.01l-5.61-9.39-25.25-42.29-5.55-9.29s-18.93,5.6-45.72,10.97c-9.75,1.96-20.53,3.88-31.84,5.5-12.09,1.72-24.77,3.09-37.37,3.75-6.01.32-12,.48-17.9.43-15.25-.1-29.9-1.53-42.73-4.93-4.28-4.02-17.18-9.49-26.42-14.5h-.01c-3.88-2.1-7.1-4.11-8.79-5.9-9.74-10.3-1.42-18.33-10.08-29.57-.12-4.12.09-8.25.63-12.34.09-.68.18-1.37.29-2.07l2.73-46.36,20.28-2.68,30.86-4.08,33.43-4.42,3.68,28.82s26.03-1.32,59.01-.88c52.97.72,123.85,6,133.45,28.66.9,2.13,1.8,4.28,2.7,6.43,2.14,5.14,4.26,10.31,6.36,15.5,7.61,18.8,14.87,37.78,21.5,55.72,4.12,11.16,8,21.92,11.57,31.99,2.87,8.1,5.53,15.76,7.96,22.81,2.22,6.44,4.23,12.37,6.02,17.69.28.83.55,1.65.82,2.44Z"/>
  <path class="cls-3" d="m314.32,288.54l-64.06-54.4,41.67-42.18,29.08,47.62,107.77,21.37c9.22-6.94,22.33-5.09,29.27,4.13,6.94,9.22,5.09,22.33-4.13,29.27-8.66,6.52-20.86,5.33-28.11-2.72l-111.5-3.09Z"/>
  <path class="cls-2" d="m193.65,162.65c-7.4,24.08,63.1,81.52,63.1,81.52.78-5.78,40.76,44.07,43.48,39.56,7.73-12.83,16.23-44.55,25.16-48.61,5.1-2.32-24.17-34.54-24.17-34.54,0,0-14.93-19.76-34.65-44.79-11.06-14.6-28.83-22.51-47.08-20.96,0,0-18.43,3.74-25.83,27.83Z"/>
  <circle class="cls-3" cx="224.83" cy="66.01" r="43.32"/>
  <path class="cls-2" d="m246.49,137.97c9.33,5.55,14.92,15.74,18.12,26.12,5.93,19.21,9.51,39.07,10.64,59.14l3.39,60.09,41.93,127.95c-36.34,30.75-172.92,6.99-172.92,6.99,0,0-4.19-1.4,0-5.59s8.27-.48,4.08-4.67-1.3.48.1-3.71,0-1.4-1.4-2.8,10.82-13.98,10.82-13.98l-11.18-73.44-13.98-148.14c16.77-20.96,50.5-33.32,50.5-33.32l8.71-15.69,43.57,3.49,7.62,17.57Z"/>
  <path class="cls-1" d="m260.54,42.99c3.37,2.51,5.86,6.02,7.13,10.02.49-6.54.52-13.11.09-19.66-.51-4.6-3.75-5.64-7.5-6.83-3.39-1.08-7.22-2.31-8.25-6.77-13.62-13.25-37.33-12.58-53.55-7.96-8.93,2.54-14.06,5.81-14.52,7.72l-.1.39-.36.18c-6.88,3.44-8.22,14.31-8.13,22.82.17,16.03,5.7,34.24,8.82,35.72.17.08.21.05.28-.01h0c4.7-3.75,10.42.29,12.94,2.48,3.06-20.5,19.71-36.28,40.35-38.22,3.28-.32,6.52-.86,9.72-1.63,1.62-.42,3.29-.64,4.97-.65,2.89-.04,5.72.8,8.11,2.41Z"/>
  <path class="cls-4" d="m205.95,353.82l-13.25-6.79c-1.63-1.16-2.01-3.43-.85-5.07.93-1.31,2.61-1.85,4.13-1.33l13.25,6.79c1.63,1.16,2.01,3.43.85,5.07-.93,1.31-2.61,1.85-4.13,1.33h0Z"/>
  <path class="cls-3" d="m161.35,335.63l-21.8-81.16,58.26-11.03-3.13,55.71,76.55,78.82c11.53-.47,21.26,8.5,21.74,20.03s-8.5,21.26-20.03,21.74c-10.83.44-20.2-7.46-21.58-18.21l-90-65.89Z"/>
  <path class="cls-2" d="m133.58,163.47c-19.78,15.61,5.61,102.94,5.61,102.94,3.93-4.31,8.5,59.42,13.3,57.25,13.65-6.17,38.67-27.44,48.32-25.7,5.52.99-.26-42.16-.26-42.16,0,0-1.06-24.74-3.06-56.55-.81-18.3-10.94-34.91-26.84-44,0,0-17.29-7.39-37.06,8.22Z"/>
  <path class="cls-2" d="m818.99,387.01l-791.42-.9c-4.45-9.43-8.4-19.09-11.83-28.93l784.47.83c7.55,8.77,13.87,18.52,18.78,29Z"/>
  <path class="cls-7" d="m566.92,596.83c-4.09,1.98-8.22,3.89-12.38,5.73-6.92-3.93-13.76-8.04-20.56-12.24l25.22-11.08,7.72,17.59Z"/>
  <path class="cls-1" d="m750.8,459.03c-4.1,5.5-8.33,10.89-12.69,16.17-4.02,4.87-8.15,9.65-12.38,14.33-1.75,1.94-3.52,3.87-5.33,5.78-3.33,3.57-6.73,7.08-10.21,10.53-6.26,1.97-18.94,5.44-32.53,8.68-9.89,2.35-20.26,4.58-29,6-4.89.88-9.84,1.41-14.81,1.58-5.9.05-11.89-.11-17.9-.43-6.78-.36-13.57-.92-20.28-1.64-17.45-1.83-34.35-4.68-48.93-7.61-5.34-1.06-10.36-2.14-14.98-3.19-8.75-1.97-16.07-3.81-21.37-5.21-5.97-1.56-9.37-2.57-9.37-2.57l-14.95,25.04-7.76,12.99-5.7,9.55-1.52,2.53c-.64-.35-1.28-.71-1.92-1.06-10.11-5.61-20.49-10.69-31.12-15.23-6.98-2.94-14.05-5.59-21.19-7.85h-.01c-2.73-.86-5.47-1.67-8.22-2.41.86-2.31,1.73-4.64,2.61-6.98,1.64-4.37,3.31-8.78,5.02-13.23,3.69-9.64,7.51-19.42,11.44-29.15,3.22-7.99,6.5-15.95,9.82-23.8,1.53-3.62,4.64-6.8,8.99-9.59,2.08-1.31,4.25-2.47,6.49-3.48,12.45-5.67,30.79-9.36,51-11.73,1.67-.19,3.35-.38,5.04-.56,16.73-1.76,34.48-2.67,51.08-3.09,8.31-.21,16.33-.29,23.79-.3,2.41,0,4.75,0,7.03.02h.01c6.15.03,11.81.12,16.79.22.97.02,1.91.05,2.83.07h.01c.62.01,1.23.03,1.83.04,10.89.28,17.57.62,17.57.62l2.59-20.32.53-4.1.5-3.9h0s.06-.5.06-.5h.41s7.2-.15,7.2-.15l60.52-1.18,33.06-.65-5.24,22.46-8.65,37.06c.88,5.86,30.14,1.27,29.84,6.24Z"/>
  <path class="cls-1" d="m574.38,593.13c-2.47,1.26-4.96,2.5-7.46,3.7-4.09,1.98-8.22,3.89-12.38,5.73-6.92-3.93-13.76-8.04-20.56-12.24-11.1-6.86-22.09-13.96-33.11-20.89-1.65-1.05-3.29-2.08-4.94-3.1h-.01c-4.54-6.74-9.17-13.76-13.84-20.99-.07-.1-.13-.2-.19-.3-1.2-1.84-2.39-3.69-3.58-5.56-7.47-11.7-14.98-23.9-22.27-36.36l18.46-8.62,34.32-16.02,5.92-2.76,17.02,33.51,15.18,29.89,3.38,6.65,24.06,47.36Z"/>
  <path class="cls-6" d="m579.56,432.25l87.5-84.38,24.25-68.67-35.77-15.56c-18.37,17.6-38.24,72.42-38.24,72.42l-60.21,76.6c-.47.16-.94.33-1.4.54-8.71,3.84-12.65,14.01-8.81,22.72,3.84,8.71,14.01,12.65,22.72,8.81,5.17-2.28,8.89-6.94,9.96-12.49Z"/>
  <path class="cls-4" d="m645.47,271.31l45.38,14.41.17-.03c16.89-2.83,30.9-30.41,39.68-53.05,6-15.5-1.04-32.99-16.09-40.02h0c-10.95-5.03-23.81-3.41-33.16,4.18l-23.3,19.04-12.68,55.48Z"/>
  <path class="cls-4" d="m750.62,460.04l.27-.35c14.16-18.78-5.21-65.27-8.13-72.02l13.16-3.9-2.29-25.06-1.11-11.18,10.23-9.72.03-.25,7.04-50.09,9.21-33.15c7.07-25.52-.18-52.87-18.96-71.53l-18.83-18.69-22.56-35.31-37.82-.98-13.6,24.16c-26.1,5.33-44.66,28.55-44.1,55.18l1.28,64.32-13.57,79.69-.38,14.47-13.32,14.06,2.46,14.21-9.96,3.97-4.88,20.19c-1.86,2.33-14.16,17.87-14.27,22.2-.02.65.45,1.29,1.46,2.02,7.96,5.69,52.44,18.03,72.46,10.61,21.32-7.89,104.89,6.93,105.74,7.08l.43.08Z"/>
  <circle class="cls-6" cx="696.48" cy="66.89" r="50.1"/>
  <path class="cls-1" d="m690.37,117.66c7.76.12,15.51-.42,23.18-1.62,7.6-1.55,24.6-14,29.34-21.5h0c3.52-5.57,5.77-14.27,7.04-20.58,3.46-16.9-.42-34.47-10.65-48.36-1.95-2.87-4.63-5.16-7.77-6.63-.28-.11-.57-.21-.85-.29-4.58-1.2-8.69-3.75-11.81-7.31-.61-.72-1.26-1.4-1.96-2.02-3.53-2.98-7.71-5.08-12.2-6.13-7.25-1.94-17.75-.01-31.2,5.73-6.76,2.89-14.15,1.84-19.83.61-.65-.13-1.32.1-1.75.6-2.42,2.27-5.61,3.54-8.92,3.56-2.03.09-4.16,2.9-6.74,6.57-.58.83-1.27,1.8-1.76,2.4l-.07-1.14-1.15,1.27c-5.91,6.52-5.42,16.6,1.09,22.51,1.75,1.59,3.84,2.77,6.1,3.45,2.04.54,4.14.88,6.25,1,1.28.12,2.6.23,3.87.45,8.28,1.7,15.06,7.62,17.85,15.59,1.17,3.27,4.77,4.96,8.03,3.79.51-.18,1-.43,1.45-.74,2.68-2.09,6.21-2.73,9.46-1.72,1.38.77,2.46,1.99,3.05,3.46.72,1.63,1.9,3.02,3.41,3.98,5.15,2.66,5.5,14.42,3.66,24.22-1.78,9.45-5.31,16.29-8.57,16.63-2.51.26-2.8.44-2.98.88l-.16.4.28.37c1.39.5,2.87.7,4.34.58Z"/>
  <path class="cls-6" d="m657.91,256.16l-19.32-38.52c-28.04,1.92-83.69,34.34-83.69,34.34l-105.3,22.33c-9.81-3.77-20.81,1.12-24.58,10.93-3.77,9.81,1.12,20.81,10.93,24.58,6.36,2.45,13.55,1.3,18.84-3.01l133.95-9.6,69.18-41.05Z"/>
  <path class="cls-4" d="m650.12,262.48l50.45-37.49,8.89-32.03c3.51-12.84-.57-26.56-10.52-35.39h0c-13.81-12.09-34.62-11.42-47.62,1.54-18.99,18.95-40.64,45.39-35.99,63.72l.05.19,34.75,39.47Z"/>
  <rect class="cls-5" x="452.66" y="362.77" width="135" height="18"/>
  <rect class="cls-5" x="107.66" y="362.77" width="135" height="18"/>
  <path class="cls-2" d="m258.43,276.21v85.7c0,2.27,1.84,4.12,4.12,4.12h127c2.27,0,4.12-1.84,4.12-4.12v-85.7c0-2.27-1.85-4.11-4.12-4.11h-127c-2.27,0-4.11,1.84-4.12,4.11Z"/>
  <path class="cls-4" d="m261.41,277.28v83.58c0,1.21.99,2.2,2.2,2.2h124.89c1.21,0,2.2-.99,2.2-2.2v-83.58c0-1.22-.98-2.2-2.2-2.21h-124.89c-1.22,0-2.2.99-2.2,2.21Z"/>
  <path class="cls-1" d="m255.77,378.63c.47.59,1.19.93,1.94.93h135.99c1.38,0,2.5-1.12,2.5-2.51,0-.17-.02-.34-.05-.51l-2.11-10.03c-.18-.83-.76-1.52-1.56-1.82-.28-.11-.58-.17-.89-.17h-131.78c-.3,0-.61.06-.89.17-.79.3-1.38.99-1.56,1.82l-2.11,10.03c-.15.74.04,1.5.51,2.09Z"/>
  <rect class="cls-2" x="386.44" y="366.34" width="4.19" height="2.51" rx=".49" ry=".49"/>
  <rect class="cls-2" x="378.07" y="366.34" width="4.19" height="2.51" rx=".49" ry=".49"/>
  <rect class="cls-2" x="369.69" y="366.34" width="4.19" height="2.51" rx=".49" ry=".49"/>
  <rect class="cls-2" x="361.31" y="366.34" width="4.19" height="2.51" rx=".49" ry=".49"/>
  <rect class="cls-2" x="352.93" y="366.34" width="4.19" height="2.51" rx=".49" ry=".49"/>
  <rect class="cls-2" x="344.56" y="366.34" width="4.19" height="2.51" rx=".49" ry=".49"/>
  <rect class="cls-2" x="336.18" y="366.34" width="4.19" height="2.51" rx=".49" ry=".49"/>
  <rect class="cls-2" x="327.8" y="366.34" width="4.19" height="2.51" rx=".49" ry=".49"/>
  <rect class="cls-2" x="319.43" y="366.34" width="4.19" height="2.51" rx=".49" ry=".49"/>
  <rect class="cls-2" x="311.05" y="366.34" width="4.19" height="2.51" rx=".49" ry=".49"/>
  <rect class="cls-2" x="302.67" y="366.34" width="4.19" height="2.51" rx=".49" ry=".49"/>
  <rect class="cls-2" x="294.3" y="366.34" width="4.19" height="2.51" rx=".49" ry=".49"/>
  <rect class="cls-2" x="285.92" y="366.34" width="4.19" height="2.51" rx=".49" ry=".49"/>
  <rect class="cls-2" x="277.54" y="366.34" width="4.19" height="2.51" rx=".49" ry=".49"/>
  <rect class="cls-2" x="269.16" y="366.34" width="4.19" height="2.51" rx=".49" ry=".49"/>
  <rect class="cls-2" x="260.79" y="366.34" width="4.19" height="2.51" rx=".49" ry=".49"/>
  <rect class="cls-2" x="386.54" y="370.52" width="4.19" height="2.51" rx=".49" ry=".49"/>
  <rect class="cls-2" x="378.16" y="370.52" width="4.19" height="2.51" rx=".49" ry=".49"/>
  <rect class="cls-2" x="369.79" y="370.52" width="4.19" height="2.51" rx=".49" ry=".49"/>
  <rect class="cls-2" x="361.41" y="370.52" width="4.19" height="2.51" rx=".49" ry=".49"/>
  <rect class="cls-2" x="353.03" y="370.52" width="4.19" height="2.51" rx=".49" ry=".49"/>
  <rect class="cls-2" x="344.66" y="370.52" width="4.19" height="2.51" rx=".49" ry=".49"/>
  <rect class="cls-2" x="336.28" y="370.52" width="4.19" height="2.51" rx=".49" ry=".49"/>
  <rect class="cls-2" x="327.9" y="370.52" width="4.19" height="2.51" rx=".49" ry=".49"/>
  <rect class="cls-2" x="319.53" y="370.52" width="4.19" height="2.51" rx=".49" ry=".49"/>
  <rect class="cls-2" x="311.15" y="370.52" width="4.19" height="2.51" rx=".49" ry=".49"/>
  <rect class="cls-2" x="302.77" y="370.52" width="4.19" height="2.51" rx=".49" ry=".49"/>
  <rect class="cls-2" x="294.39" y="370.52" width="4.19" height="2.51" rx=".49" ry=".49"/>
  <rect class="cls-2" x="286.02" y="370.52" width="4.19" height="2.51" rx=".49" ry=".49"/>
  <rect class="cls-2" x="277.64" y="370.52" width="4.19" height="2.51" rx=".49" ry=".49"/>
  <rect class="cls-2" x="269.26" y="370.52" width="4.19" height="2.51" rx=".49" ry=".49"/>
  <rect class="cls-2" x="260.89" y="370.52" width="4.19" height="2.51" rx=".49" ry=".49"/>
  <rect class="cls-2" x="317.01" y="375.55" width="33.51" height="2.51" rx=".49" ry=".49"/>
</svg>