<?xml version="1.0" encoding="UTF-8"?>
<svg id="Layer_2" data-name="Layer 2" xmlns="http://www.w3.org/2000/svg" viewBox="0 0 518.42 420">
  <defs>
    <style>
      .cls-1 {
        fill: #2f2e41;
      }

      .cls-1, .cls-2, .cls-3, .cls-4, .cls-5, .cls-6, .cls-7 {
        stroke-width: 0px;
      }

      .cls-2 {
        fill: #ccc;
      }

      .cls-3 {
        fill: #a0616a;
      }

      .cls-4 {
        fill: #93ad92;
      }

      .cls-5 {
        fill: #fff;
      }

      .cls-6 {
        fill: #ffb6b6;
      }

      .cls-7 {
        fill: #e6e6e6;
      }
    </style>
  </defs>
  <g id="Layer_1-2" data-name="Layer 1">
    <rect class="cls-7" x="390.05" y="258.6" width="8.01" height="165.46" transform="translate(-97.71 168.26) rotate(-21.51)"/>
    <rect class="cls-7" x="269.51" y="337.32" width="165.46" height="8.01" transform="translate(-94.47 543.89) rotate(-68.49)"/>
    <ellipse class="cls-7" cx="370.04" cy="270.57" rx="52.93" ry="20.46"/>
    <path class="cls-1" d="m414.2,279.26l-84.69-10.16c-16.45-1.97-28.19-16.91-26.21-33.36,1.97-16.45,16.91-28.19,33.36-26.21h0l84.69,10.16c16.45,1.97,28.19,16.91,26.21,33.36-1.97,16.45-16.91,28.19-33.36,26.21Z"/>
    <path class="cls-7" d="m397.6,66.29l12.41,12.04,15.87,7.04c-1.39.96-8.69,99.39.72,103.49,8.01,3.49-.15,6.37.12,14.49s1.31,24.82,1.31,24.82c-44.05,16.96-61.15,18.6-86.76-10.5-.36-3.36,1.66-6.52,4.87-7.6,5.68-2.19-3-16.64,1.63-18.33s.79-21.6.79-21.6l-9.86-44.87-2.41-6.78,12.45-38.2,14.06-3.3,6.93-12.32,27.86,1.61Z"/>
    <path class="cls-3" d="m231.64,157.21c5.09-4.18,12.61-3.43,16.78,1.66.45.54.84,1.12,1.18,1.74l41.72-7.43-8.71,20.23-38.29,3.96c-5.98,2.85-13.13.3-15.98-5.68-2.38-5-1.02-10.99,3.28-14.47h0Z"/>
    <path class="cls-7" d="m274.78,174.91c3.66,3.78,7.26,3.33,10.81-.6l49.65-2.75.15-.29c.17-.33,10.64-20.15,19.92-38.7,1.43-2.86,2.83-5.68,4.16-8.4.57-1.17,1.14-2.33,1.68-3.46,3.68-7.63,6.62-14.08,7.77-17.47,2.65-7.58,2.63-15.84-.06-23.41l-.08-.18-.17-.1c-7.26-4.16-16.43-2.72-22.07,3.46-13.14,14.56-22.72,31.97-27.98,50.86l-2.98,10.75-30.73,7.61c-3.14-1.69-5.84-1.27-7.97,1.97l-2.11,20.71Z"/>
    <polygon class="cls-6" points="323.02 378.49 333.57 388.12 375.7 352.02 360.14 337.82 323.02 378.49"/>
    <path class="cls-1" d="m323.48,372.6l2.97,2.71,15.89,5.86,1.91,10.38h0c7.31,6.67,7.83,18,1.16,25.31l-.39.43-34-31.03,12.47-13.67Z"/>
    <path class="cls-1" d="m402.91,266.2l-9.1-17.58c.76-17.8,16.2-31.7,33.92-29.93,9.87.99,18.93,6.86,22.15,23.45,8.27,42.66-91.56,127.08-91.56,127.08l-17.34-11.62-.39-11.62,10.16-5.76.38-9.88,9.64-4.14,42.14-60.01Z"/>
    <circle class="cls-3" cx="376.08" cy="32.65" r="27.21"/>
    <polygon class="cls-6" points="397.99 375.83 386.07 383.69 350.08 341.47 367.67 329.87 397.99 375.83"/>
    <path class="cls-1" d="m408.65,385.37l-38.42,25.35-.32-.49c-5.45-8.26-3.17-19.37,5.09-24.82h0s3.5-9.96,3.5-9.96l16.61-3.32,3.35-2.21,10.19,15.44Z"/>
    <path class="cls-1" d="m343.53,264.49l11.27-18.32c2.02-17.7-11.06-33.84-28.84-34.84-9.9-.56-19.77,3.83-25.53,19.72-14.82,40.85,70.65,139.79,70.65,139.79l18.94-8.78,2.19-11.41-9.14-7.27,1.17-9.82-8.88-5.6-31.81-63.47Z"/>
    <path class="cls-1" d="m385.39,39.13c.03-.35.05-.7.07-1.06-.12.34-.14.7-.07,1.06Z"/>
    <path class="cls-1" d="m408.8,26.54c-1.99-9.1-8.84-16.36-17.82-18.87-2.45-4.1-6.61-6.86-11.34-7.53-4.38-.58-8.77.72-12.98,2.05-2.6.83-5.2,1.67-7.79,2.54-2.11.71-4.7,2.32-4,4.43-1.33-.69-2.98-.18-3.67,1.15-.45.87-.4,1.91.12,2.73-.98-1.26-3.24-.45-3.78,1.05-.54,1.5.1,3.16.89,4.54,4.92,8.09,14.68,11.83,23.75,9.11,2.58-.84,5.21-2.23,7.85-1.61,2.49.58,4.29,2.9,5,5.36.52,2.15.66,4.38.42,6.58.7-1.63,2.58-2.38,4.21-1.68,1.88.94,2.56,3.41,2.09,5.47-.47,2.05-5.36,10.01-6.65,11.67-1.42,1.57-2.46,3.43-3.05,5.46,4.64-.71,9.28-1.43,13.92-2.14l.25.25c7.19-5.59,14.39-21.63,12.57-30.56Z"/>
    <path class="cls-3" d="m342.13,218.2c2.43-6.12,9.36-9.12,15.48-6.7.65.26,1.28.57,1.88.94l32.87-26.75,2.2,21.91-31.55,22.04c-3.85,5.39-11.34,6.64-16.73,2.79-4.51-3.22-6.23-9.11-4.15-14.25h0Z"/>
    <path class="cls-7" d="m394.14,211.67c3.96,1.42,7.02.36,8.28-5.67l37.26-25.53v-.33c4.85-.38,3.74-72.24-3.71-75.76-1.36-7.92-5.39-15.13-11.41-20.44l-.16-.12h-.2c-8.37-.11-15.69,5.6-17.62,13.74-4.42,19.1-4.35,38.97.23,58.04l2.61,10.84-16.27,13.77c-4.5-1.18-6.49.63-6.16,5.21l7.15,26.24Z"/>
    <rect class="cls-7" x="130.97" y="269.39" width="7.47" height="154.39" transform="translate(-117.69 73.53) rotate(-21.51)"/>
    <rect class="cls-7" x="18.5" y="342.84" width="154.39" height="7.47" transform="translate(-261.84 308.53) rotate(-68.49)"/>
    <ellipse class="cls-7" cx="112.29" cy="280.55" rx="49.39" ry="19.09"/>
    <path class="cls-6" d="m82.33,60.55c2.33,14.58,16.03,24.51,30.61,22.19.79-.13,1.58-.29,2.35-.49,13.41-3.39,22.02-16.46,19.84-30.12-.33-2.1-.92-4.15-1.74-6.11-5.7-13.62-21.36-20.04-34.98-14.35-11.38,4.76-18.03,16.69-16.08,28.88h0Z"/>
    <polygon class="cls-6" points="226.46 398.54 238.47 394.97 230.53 345.89 212.81 351.16 226.46 398.54"/>
    <path class="cls-6" d="m152.83,379.17c.73.64,1.46,1.27,2.2,1.9,1.47,1.26,2.97,2.5,4.46,3.73.75.61,1.51,1.23,2.26,1.84v.02s.04.02.04.02h.02s1.21.52,1.21.52l2.57-4.5,1.19-2.07,1.68-2.94,3.07-5.37,16.16-28.28-17.02-7.18-1.09,2.61h0s-.54,1.29-.54,1.29l-10.17,24.12-2.08,4.93-.07.15-1.25,2.95-1.08,2.55-1.2,2.85-.36.86Z"/>
    <path class="cls-1" d="m63.88,256.77c.84,1.98,1.7,3.96,2.58,5.92,1.62,3.65,3.31,7.26,5.07,10.84,0,0,0,0,.01.02,1.13,1.43,2.42,2.73,3.84,3.86.06.06.13.1.19.16,1.05.82,2.2,1.51,3.42,2.05.44.19.89.38,1.33.56,1.59.66,3.18,1.25,4.76,1.81,2.82.98,5.64,1.8,8.45,2.48.23.06.45.11.68.17,11.6,2.72,23.23,3.14,35.51,2.76,6.06-.18,12.28-.57,18.73-.97,2.11-.14,4.22-.26,6.36-.39.16,0,.33-.02.5-.03,3.05-.18,6.16-.34,9.33-.49,4-.18,8.11-.32,12.37-.39l-1.22,5.8c-.96,4.46-2.59,8.74-4.85,12.7-2.59,4.9-4.64,8.78-3.03,17.78l.77,4.36c-2.16,3.92-2.35,8.63-.53,12.72l.22.48-16.66,28.21-1.08,1.83,6.09.96,7.49,1.2,12.7,2.01,24.15-33.86,1.16-1.62v-.09s9.31-70.94,9.31-70.94c.07-.63.12-1.27.14-1.9.23-5.83-1.89-11.51-5.88-15.76-3.82-4.1-9.13-6.5-14.74-6.65l-6.4-.18-13.08-.37-9.21-.26h-.18s-27.16-.78-27.16-.78l-.68-8.09-.33-.19-10.56-5.88-36.51-20.35-.09-.05-2.4-1.34-.38.44c-.11.13-.23.27-.33.4-3.24,4.12-6.04,8.56-8.38,13.25-3.89,7.65-7.33,15.51-10.33,23.55-.13.35-.25.67-.35.95l-.04.09c-.05.14-.08.22-.09.25-1.48,3.58-1.58,8.22-.65,12.98Z"/>
    <path class="cls-1" d="m66.37,230.48c.21-.51.45-1.01.69-1.5,1.92-3.71,4.05-7.3,6.36-10.77,2.61-3.96,5.65-8.16,9.2-12.66,1.72-2.18,3.55-4.44,5.5-6.79.98-1.17,1.99-2.37,3.03-3.58.04-.06.09-.11.14-.16l.3-.36,37.54,11.21,10.98,4.14,2.72,7.28-.07,1.8s0,0,0,0l-.19,4.9h0s-.24,6.47-.24,6.47h.07s21.63.61,21.63.61l22.29.63,11.97.34c5.61.15,10.91,2.55,14.74,6.65,3.99,4.25,6.11,9.93,5.88,15.76-.02.59-.06,1.18-.13,1.77l6.91,27.98c4.14,16.73,5.73,34,4.71,51.2l4.01,27.23-1.17-.08-17.45-1.13-4.61-.29-7.69-16.19c-.88-1.84-1.69-3.73-2.42-5.64-1.21-3.13-2.21-6.33-3.01-9.59l-13.48-54.91c-1.72.02-3.42.03-5.1.03-7.78.03-15.22-.12-22.32-.45-23.09-1.06-42.76-3.97-59.91-8.89-4.82-1.38-9.44-2.92-13.87-4.62-1.62-.62-3.22-1.26-4.8-1.93-.37-.15-.73-.3-1.1-.46-6.6-2.87-11.3-8.89-12.47-15.99-.7-4.06-.24-8.23,1.35-12.03Z"/>
    <path class="cls-1" d="m224.1,390.36l12.99-3.88,2.04-.61,1.85,7.91,20.38,7.99c2.61,1.02,3.9,3.96,2.88,6.57-.61,1.55-1.94,2.71-3.57,3.09l-21.97,5.15-5.62-6.93.35,8.17-8.27,1.94-4.22-28.46,3.16-.95Z"/>
    <polygon class="cls-1" points="151.7 367.17 150.62 369 151.39 369.12 151.7 367.17"/>
    <path class="cls-1" d="m155.53,370.2l11.96,6.39,1.88,1-4.25,6.92,8.86,20.02c1.14,2.56-.02,5.56-2.58,6.69-1.53.68-3.29.56-4.71-.31l-19.23-11.8.89-8.88-5.49,6.05-7.25-4.44,17.02-23.2,2.91,1.55Z"/>
    <path class="cls-6" d="m239.18,215.04c-4.8,1.47-9.89-1.23-11.36-6.04-.16-.51-.27-1.04-.33-1.57l-31.6-6.85,12.01-11.75,28.17,8.3c5.04-.27,9.36,3.59,9.63,8.64.23,4.22-2.46,8.05-6.51,9.26h0Z"/>
    <path class="cls-4" d="m146.36,200.28l-58.33-49.85c-9.62-8.24-10.75-22.71-2.54-32.34h0c8.23-9.63,22.71-10.77,32.34-2.54,1.07.91,2.05,1.92,2.93,3.01l42.84,52.97,57.46,15.51-1.49,18.98-73.21-5.75Z"/>
    <path class="cls-4" d="m78.33,149.1l-1.24,45.24c-17,28.72-18.94,42.67-14.23,50.11l78.91-26.54,1.18-2.81-5.35-19.22,6.62-20.86c1.17-2.18,16.99-15.57,2.16-40.97l-29.84-40.2-10.79-.87c-3.94,10.12-9.95,15.14-17.05,17.47-16.06,14.72-13.7,17.11-10.37,38.64Z"/>
    <path class="cls-1" d="m138.6,41.27c-.84,2.37-2.63,4.29-4.94,5.3-1.82-1.72-3.8-3.28-5.89-4.65.91,1.85,1.66,3.78,2.23,5.76-.04,0-.07,0-.12.02-3.79.51-7.59-.43-11.29-1.36l.51.47c.06,6.06-3.39,11.61-8.85,14.23-2.96,1.36-6.87,2.31-7.6,5.48-.65,2.81,1.78,5.32,4.13,6.99s5.08,3.49,5.46,6.35c.61,4.65-5.35,7.59-6.36,12.17-.88,3.92,2.15,7.65,5.48,9.89,3.33,2.24,7.25,3.78,9.82,6.87,4.56,5.47,3.09,14.19-1.61,19.55-.51.58-1.05,1.13-1.63,1.65-1.29-1.62-2.69-3.15-4.21-4.57-1.82-1.72-3.8-3.28-5.89-4.65.91,1.85,1.66,3.78,2.23,5.76.75,2.54,1.23,5.16,1.42,7.8-3.38,1.61-6.93,2.84-10.58,3.68-9.19,2.25-18.65,3.22-28.11,2.89-4.32-.07-8.61-.68-12.78-1.81,1.91-6.03,2.47-12.41,1.64-18.68-2.36,5.51-6.02,10.37-10.67,14.16-3.89-3.06-6.78-7.4-7.26-12.29-.59-6.01,2.43-11.75,5.79-16.78,3.36-5.02,7.23-9.92,8.71-15.77,2.16-8.53-1.14-17.41-1.56-26.2-1.08-22.18,16.03-41.02,38.21-42.1,1.01-.05,2.02-.06,3.03-.03,4.99.29,9.94,1.05,14.78,2.26,2.63.56,5.25,1.14,7.89,1.7,3.25.6,6.44,1.51,9.53,2.71,2.69,1.05,5.05,2.79,6.85,5.05,1.79,2.31,2.4,5.32,1.65,8.14Z"/>
    <path class="cls-2" d="m485.06,207.18H34.18v-.5c.01-11.27,9.15-20.41,20.42-20.42h410.04c11.27.01,20.41,9.15,20.42,20.42v.5Z"/>
    <polygon class="cls-2" points="518.42 417.15 511.47 420 454.86 204.03 461.81 201.18 518.42 417.15"/>
    <polygon class="cls-2" points="415.85 417.15 422.8 420 479.41 204.03 472.46 201.18 415.85 417.15"/>
    <polygon class="cls-2" points="102.57 417.15 95.62 420 39.01 204.03 45.96 201.18 102.57 417.15"/>
    <polygon class="cls-2" points="0 417.15 6.95 420 63.56 204.03 56.61 201.18 0 417.15"/>
    <path class="cls-4" d="m311.07,170.45c.52-1.57-.33-3.27-1.9-3.79-.13-.04-.26-.08-.4-.1-.16-.03-.31-.05-.47-.06l-19.19-.5c-.87,0-1.7.35-2.3.99-.27-.06-.54-.09-.82-.09-2.51-.07-4.6,1.91-4.67,4.42s1.91,4.6,4.42,4.67c0,0,.01,0,.02,0,.69.01,1.37-.13,2-.41l1.77,18.88c.35,1.27,1.5,2.17,2.82,2.19l12.47.32c1.31.02,2.49-.8,2.91-2.04l3.33-24.5Zm-25.26,4.25c-1.8-.05-3.21-1.55-3.16-3.34.05-1.79,1.53-3.2,3.32-3.16.06,0,.11.03.18.03-.14.52-.13,1.07,0,1.59l1.26,4.5c-.49.27-1.04.41-1.59.39Z"/>
    <path class="cls-5" d="m308.77,166.56c-.41,2.34-5.01,3.98-10.53,3.7-5.08-.23-9.24-2.02-10-4.13.28-.08.57-.12.87-.12l19.19.5c.16,0,.32.03.47.06Z"/>
    <path class="cls-4" d="m247.15,162.98c.52-1.57-.33-3.27-1.9-3.79-.13-.04-.26-.08-.4-.1-.16-.03-.31-.05-.47-.06l-19.19-.5c-.87,0-1.7.35-2.3.99-.27-.06-.54-.09-.82-.09-2.51-.06-4.59,1.93-4.65,4.44-.06,2.5,1.92,4.58,4.42,4.65.69.01,1.37-.13,2-.41l1.77,18.88c.35,1.27,1.5,2.17,2.82,2.19l12.47.32c1.31.02,2.49-.8,2.91-2.04l3.33-24.5Zm-25.26,4.25c-1.8-.05-3.21-1.55-3.16-3.34.05-1.79,1.53-3.2,3.32-3.16.06,0,.11.03.18.03-.14.52-.13,1.07,0,1.59l1.26,4.5c-.49.27-1.04.41-1.59.39Z"/>
    <path class="cls-5" d="m244.86,159.09c-.41,2.34-5.01,3.98-10.53,3.7-5.08-.23-9.24-2.02-10-4.13.28-.08.57-.12.87-.12l19.19.5c.16,0,.32.03.47.06Z"/>
    <path class="cls-6" d="m237.74,194.81c-4.62,1.97-9.97-.19-11.94-4.81-.21-.49-.38-1-.5-1.53l-32.15-3.49,10.71-12.95,28.88,5.3c4.99-.8,9.68,2.59,10.49,7.58.67,4.17-1.6,8.26-5.5,9.89h0Z"/>
    <path class="cls-4" d="m143.9,189.87l-63.25-43.45c-10.43-7.18-13.08-21.45-5.92-31.9h0c7.17-10.44,21.46-13.09,31.9-5.92,1.16.8,2.24,1.7,3.23,2.69l48.16,48.18,58.77,9.39.51,19.03-73.41,1.97Z"/>
  </g>
</svg>