<?xml version="1.0" encoding="UTF-8"?>
<svg id="Layer_2" data-name="Layer 2" xmlns="http://www.w3.org/2000/svg" viewBox="0 0 341.82 260.52">
  <defs>
    <style>
      .cls-1 {
        fill: #2f2e41;
      }

      .cls-1, .cls-2, .cls-3 {
        stroke-width: 0px;
      }

      .cls-2 {
        fill: #3f3d56;
      }

      .cls-3 {
        fill: #93ad92;
      }
    </style>
  </defs>
  <g id="Layer_1-2" data-name="Layer 1">
    <path class="cls-2" d="m7.8,9.97v207.77c0,5.51,4.47,9.98,9.99,9.99h307.89c5.51,0,9.98-4.47,9.99-9.99V9.97c-.01-5.51-4.48-9.97-9.99-9.97H17.79C12.28,0,7.82,4.47,7.8,9.97Z"/>
    <path class="cls-3" d="m15.03,12.56v202.62c0,2.95,2.39,5.33,5.34,5.34h302.76c2.95,0,5.33-2.39,5.34-5.34V12.56c0-2.95-2.39-5.34-5.34-5.35H20.36c-2.95,0-5.34,2.4-5.34,5.35Z"/>
    <path class="cls-1" d="m1.36,258.27c1.14,1.43,2.88,2.26,4.71,2.25h329.68c3.35,0,6.06-2.72,6.06-6.07,0-.42-.04-.83-.13-1.24l-5.12-24.31c-.43-2.01-1.85-3.67-3.78-4.41-.69-.27-1.42-.41-2.15-.41H11.17c-.74,0-1.47.14-2.15.41-1.92.73-3.35,2.39-3.78,4.41L.13,253.21c-.37,1.79.09,3.64,1.24,5.06Z"/>
    <rect class="cls-2" x="318.15" y="228.47" width="10.15" height="6.09" rx="1.18" ry="1.18"/>
    <rect class="cls-2" x="297.84" y="228.47" width="10.15" height="6.09" rx="1.18" ry="1.18"/>
    <rect class="cls-2" x="277.53" y="228.47" width="10.15" height="6.09" rx="1.18" ry="1.18"/>
    <rect class="cls-2" x="257.22" y="228.47" width="10.15" height="6.09" rx="1.18" ry="1.18"/>
    <rect class="cls-2" x="236.91" y="228.47" width="10.15" height="6.09" rx="1.18" ry="1.18"/>
    <rect class="cls-2" x="216.6" y="228.47" width="10.15" height="6.09" rx="1.18" ry="1.18"/>
    <rect class="cls-2" x="196.3" y="228.47" width="10.15" height="6.09" rx="1.18" ry="1.18"/>
    <rect class="cls-2" x="175.99" y="228.47" width="10.15" height="6.09" rx="1.18" ry="1.18"/>
    <rect class="cls-2" x="155.68" y="228.47" width="10.15" height="6.09" rx="1.18" ry="1.18"/>
    <rect class="cls-2" x="135.37" y="228.47" width="10.15" height="6.09" rx="1.18" ry="1.18"/>
    <rect class="cls-2" x="115.06" y="228.47" width="10.15" height="6.09" rx="1.18" ry="1.18"/>
    <rect class="cls-2" x="94.76" y="228.47" width="10.15" height="6.09" rx="1.18" ry="1.18"/>
    <rect class="cls-2" x="74.45" y="228.47" width="10.15" height="6.09" rx="1.18" ry="1.18"/>
    <rect class="cls-2" x="54.14" y="228.47" width="10.15" height="6.09" rx="1.18" ry="1.18"/>
    <rect class="cls-2" x="33.83" y="228.47" width="10.15" height="6.09" rx="1.18" ry="1.18"/>
    <rect class="cls-2" x="13.52" y="228.47" width="10.15" height="6.09" rx="1.18" ry="1.18"/>
    <rect class="cls-2" x="318.39" y="238.62" width="10.15" height="6.09" rx="1.18" ry="1.18"/>
    <rect class="cls-2" x="298.08" y="238.62" width="10.15" height="6.09" rx="1.18" ry="1.18"/>
    <rect class="cls-2" x="277.77" y="238.62" width="10.15" height="6.09" rx="1.18" ry="1.18"/>
    <rect class="cls-2" x="257.46" y="238.62" width="10.15" height="6.09" rx="1.18" ry="1.18"/>
    <rect class="cls-2" x="237.15" y="238.62" width="10.15" height="6.09" rx="1.18" ry="1.18"/>
    <rect class="cls-2" x="216.84" y="238.62" width="10.15" height="6.09" rx="1.18" ry="1.18"/>
    <rect class="cls-2" x="196.54" y="238.62" width="10.15" height="6.09" rx="1.18" ry="1.18"/>
    <rect class="cls-2" x="176.23" y="238.62" width="10.15" height="6.09" rx="1.18" ry="1.18"/>
    <rect class="cls-2" x="155.92" y="238.62" width="10.15" height="6.09" rx="1.18" ry="1.18"/>
    <rect class="cls-2" x="135.61" y="238.62" width="10.15" height="6.09" rx="1.18" ry="1.18"/>
    <rect class="cls-2" x="115.3" y="238.62" width="10.15" height="6.09" rx="1.18" ry="1.18"/>
    <rect class="cls-2" x="95" y="238.62" width="10.15" height="6.09" rx="1.18" ry="1.18"/>
    <rect class="cls-2" x="74.69" y="238.62" width="10.15" height="6.09" rx="1.18" ry="1.18"/>
    <rect class="cls-2" x="54.38" y="238.62" width="10.15" height="6.09" rx="1.18" ry="1.18"/>
    <rect class="cls-2" x="34.07" y="238.62" width="10.15" height="6.09" rx="1.18" ry="1.18"/>
    <rect class="cls-2" x="13.76" y="238.62" width="10.15" height="6.09" rx="1.18" ry="1.18"/>
    <rect class="cls-2" x="149.83" y="250.8" width="81.23" height="6.09" rx="1.18" ry="1.18"/>
  </g>
</svg>