<?xml version="1.0" encoding="UTF-8"?>
<svg id="Layer_2" data-name="Layer 2" xmlns="http://www.w3.org/2000/svg" viewBox="0 0 722 566.78">
  <defs>
    <style>
      .cls-1 {
        fill: #2f2e41;
      }

      .cls-1, .cls-2, .cls-3, .cls-4, .cls-5 {
        stroke-width: 0px;
      }

      .cls-2 {
        fill: #93ad92;
      }

      .cls-3 {
        fill: #fff;
      }

      .cls-4 {
        fill: #e4e4e4;
      }

      .cls-5 {
        fill: #ffb6b6;
      }
    </style>
  </defs>
  <g id="Layer_1-2" data-name="Layer 1">
    <circle class="cls-4" cx="98.75" cy="101.78" r="98.75"/>
    <circle class="cls-2" cx="98.75" cy="101.78" r="82.29"/>
    <circle class="cls-4" cx="361" cy="101.78" r="98.75"/>
    <circle class="cls-3" cx="361" cy="101.78" r="82.29"/>
    <circle class="cls-4" cx="623.25" cy="101.78" r="98.75"/>
    <circle class="cls-3" cx="623.25" cy="101.78" r="82.29"/>
    <path class="cls-3" d="m91.76,131.54c-.15,0-.29,0-.44-.01-2.63-.13-5.08-1.4-6.7-3.48l-12.62-16.23c-3.06-3.94-2.35-9.62,1.59-12.69l.45-.35c3.94-3.06,9.62-2.35,12.69,1.59,2.73,3.51,7.78,4.14,11.29,1.41.32-.25.62-.52.9-.82l25.63-27.06c3.43-3.63,9.16-3.78,12.78-.35,0,0,0,0,0,0l.42.4c3.63,3.44,3.78,9.16.35,12.78l-39.77,41.98c-1.71,1.8-4.08,2.82-6.56,2.82Z"/>
    <path class="cls-1" d="m317.66,81.78h-65V25.25c.14-7.29,6.15-13.09,13.44-12.97h21.61c16.52,0,29.96,12.97,29.96,28.92v40.58Z"/>
    <polygon class="cls-5" points="341.72 554.82 329.38 554.82 323.51 507.22 341.72 507.22 341.72 554.82"/>
    <path class="cls-1" d="m344.87,566.78h-39.79v-.5c0-8.55,6.93-15.49,15.49-15.49h24.3s0,15.99,0,15.99Z"/>
    <polygon class="cls-5" points="227.99 554.82 215.65 554.82 209.78 507.22 227.99 507.22 227.99 554.82"/>
    <path class="cls-1" d="m231.13,566.78h-39.79v-.5c0-8.55,6.93-15.49,15.49-15.49h24.3s0,15.99,0,15.99Z"/>
    <polygon class="cls-5" points="242.89 172.45 234.83 223.78 311.33 224.79 301.26 175.47 242.89 172.45"/>
    <path class="cls-1" d="m237.05,211.25l-24.36,64.87-3.02,268.84h20.63l49.32-216,45.29,210.36h20.13l-14.09-236.53s4.16-47.47-17.11-75.49l-5.18-14.95-71.61-1.1Z"/>
    <path class="cls-5" d="m341.56,261.82c-8.05-2.19-12.79-10.49-10.6-18.54.23-.86.54-1.69.92-2.5l-32.54-106.09,23.94-4.74,29.76,103.99c7.32,4.08,9.95,13.33,5.86,20.65-3.42,6.13-10.59,9.11-17.35,7.23h0Z"/>
    <path class="cls-4" d="m298.49,200.8l-52.73-1.02c-3.1-.07-5.77-2.19-6.53-5.19-2.83-11.19-9.05-40.36-5.75-69.41,2.69-23.24,23.71-39.91,46.95-37.22.4.05.8.1,1.2.16,23.17,3.32,39.27,24.79,35.95,47.96-.23,1.6-.55,3.19-.96,4.76-6.64,25.21-10.39,43.24-11.14,53.6-.23,3.08-2.48,5.63-5.51,6.23h0c-.44.09-.88.13-1.33.13-.05,0-.1,0-.15,0Z"/>
    <path class="cls-5" d="m138.32,107.6c.32.71.58,1.44.78,2.2l66,22.43,12.75-11.14,19.33,17.05-20.66,21.92c-3.43,3.64-8.85,4.57-13.3,2.3l-70.63-36.08c-6.95,4.26-16.03,2.08-20.29-4.86-4.26-6.95-2.08-16.03,4.86-20.29,6.95-4.26,16.03-2.08,20.29,4.86.32.52.61,1.06.86,1.62h0Z"/>
    <path class="cls-4" d="m205.24,128.65c.01-1.84.82-3.58,2.22-4.78l24.17-20.59c6.38-7.31,17.48-8.06,24.79-1.68,7.28,6.36,8.06,17.4,1.74,24.72l-17.21,26.8c-1.89,2.94-5.8,3.79-8.74,1.9-.26-.17-.51-.35-.74-.56l-24.06-21.02c-1.39-1.21-2.18-2.96-2.16-4.8Z"/>
    <path class="cls-4" d="m297.88,161.56c-1.63-.86-2.8-2.38-3.22-4.17l-7.15-30.93c-3.55-9.03.89-19.23,9.92-22.78,9-3.54,19.16.86,22.74,9.84l15.86,27.62c1.74,3.03.69,6.9-2.33,8.64-.27.15-.55.29-.84.4l-29.73,11.68c-1.71.67-3.63.57-5.26-.29Z"/>
    <ellipse class="cls-1" cx="309.66" cy="11.91" rx="11.25" ry="15" transform="translate(177.07 292) rotate(-66.87)"/>
    <circle class="cls-5" cx="272.82" cy="45.53" r="30.77"/>
    <path class="cls-1" d="m289.7,10.28h-35.2c-5.35-.07-9.85,4-10.32,9.33-.37,5.51,3.8,10.28,9.31,10.64.22.01.44.02.66.02h0c5.52,0,10,4.48,10,10v41h55v-41.54c0-16.27-13.19-29.46-29.46-29.46h0Z"/>
  </g>
</svg>