<?xml version="1.0" encoding="UTF-8"?>
<svg id="Layer_2" data-name="Layer 2" xmlns="http://www.w3.org/2000/svg" viewBox="0 0 241.78 485.87">
  <defs>
    <style>
      .cls-1 {
        fill: #2f2e41;
      }

      .cls-1, .cls-2, .cls-3, .cls-4 {
        stroke-width: 0px;
      }

      .cls-2 {
        fill: #3f3d56;
      }

      .cls-3 {
        fill: #9e616a;
      }

      .cls-4 {
        fill: #ffb6b6;
      }
    </style>
  </defs>
  <g id="Layer_1-2" data-name="Layer 1">
    <path class="cls-1" d="m137.68,18.59c-3.83-8.84-11.54-15.4-20.88-17.75-10.23-2.66-25.21,1.39-32.9,7.21-14.07,10.65-17.5,47.22-7.84,58.77,1.92-.08,8.56-.13,10.5-.19l2.75-6.97v6.9c15.19-.36,31-.13,46.82.1,1.42-8.18,4.8-40.2,1.54-48.07Z"/>
    <polygon class="cls-3" points="135.1 459.57 148.95 459.57 155.54 406.15 135.1 406.15 135.1 459.57"/>
    <polygon class="cls-3" points="13.84 450.96 27.25 454.45 47.1 404.42 27.32 399.26 13.84 450.96"/>
    <polygon class="cls-4" points="90.18 131.43 87.04 139.59 87.67 147.75 149.09 169.03 146.04 133.32 139.14 125.16 90.18 131.43"/>
    <circle class="cls-3" cx="116.53" cy="36.06" r="21.94"/>
    <path class="cls-1" d="m131.6,7.49c-12.99-7.92-29.95-3.81-37.87,9.18-2.73,4.47-4.12,9.63-4.02,14.86,11.96,3.06,24.7,4.33,38.21.74l3.09-7.56,1.82,7.56c4.13,2.91,8.12,2.9,11.96-.02.33-10.02-4.69-19.45-13.18-24.77Z"/>
    <path class="cls-1" d="m131.66,452.74l21.9-1.31v9.38l20.82,14.38c2.66,1.84,3.33,5.49,1.49,8.15-1.09,1.58-2.9,2.53-4.82,2.53h-26.07l-4.49-9.28-1.75,9.28h-9.83l2.76-33.13Z"/>
    <path class="cls-1" d="m11.03,443.16l21.52,4.26-2.37,9.08,16.52,19.16c2.11,2.45,1.84,6.15-.61,8.26-1.46,1.26-3.44,1.72-5.3,1.23l-25.23-6.58-2.01-10.11-4.04,8.54-9.51-2.48,11.03-31.37Z"/>
    <path class="cls-1" d="m15.54,417.36l40.6-83.45,12.75-101.57c-8.79-16.32,7.53-49.53,7.53-49.53v-13.94l63.22,11.93h0c12.93,35.27,19.2,72.63,18.49,110.19l-2.55,135.01h.8c2.76,0,5,2.24,5,5s-2.24,5-5,5h-25c-2.76,0-5-2.24-5-5s2.24-5,5-5h.64l-17.95-171.76-20.87,84.76-50.43,78.04c2.75.21,4.8,2.61,4.58,5.36-.2,2.6-2.38,4.61-4.98,4.6h-25c-2.76,0-5-2.23-5-4.99,0-2.05,1.25-3.89,3.16-4.65Z"/>
    <path class="cls-2" d="m70.71,191.37h0c.43-1.67,1.88-2.88,3.61-2.99.83-9.53,6.34-70.63,6.55-72.42v-.08s1.6-34.06,1.6-34.06c.12-2.56,2.14-4.62,4.7-4.79l8.42-.55c.24,0,.43-.21.43-.45,0-3.91,3.17-7.08,7.08-7.08h24.93c3.34,0,6.16,2.49,6.58,5.8.02.23.22.4.45.4h0c5.85-.12,10.92,4.05,11.92,9.82,3.41,19.83,10.24,64.84,6.86,89.86-1.18,8.71-.64,21.81-.2,29.1.09,1.42-.39,2.82-1.34,3.89,2.07.6,3.29,2.72,2.77,4.81h0c-.54,2.14-2.71,3.44-4.86,2.9l-76.6-19.31c-2.14-.54-3.44-2.71-2.9-4.86Z"/>
    <path class="cls-3" d="m74.24,248.82c3.8-3.82,3.79-10-.04-13.8-.41-.41-.85-.77-1.32-1.1l15.54-77.19-17.16,5.51-12.44,74.66c-2.79,4.65-1.28,10.68,3.37,13.46,3.89,2.33,8.87,1.7,12.05-1.54Z"/>
    <path class="cls-2" d="m97.18,85.52l-10.65-8.04s-9.39-.67-11.06,16.27-5.08,49.95-5.08,49.95l-16.29,75.46,22.55,4.95,17.45-81.44,10.47-24.18-7.4-32.98Z"/>
    <path class="cls-3" d="m235.48,107.37c-5.02-1.96-10.68.52-12.64,5.54-.21.54-.37,1.09-.48,1.65l-76.98,16.55,11.9,13.54,73.42-18.39c5.37.7,10.3-3.09,11-8.46.59-4.5-1.99-8.81-6.22-10.43h0Z"/>
    <path class="cls-2" d="m133.28,149.17c-2.46-2.38-4.31-5.31-5.39-8.56l-14.06-42.26c-3.1-9.32,1.94-19.39,11.27-22.5,3.46-1.15,7.19-1.21,10.69-.17,7.21,2.16,12.3,8.61,12.7,16.13l1.72,33.26,56.8-8.32,14.76,13.57-.8.27c-3.14,1.07-74.93,25.4-86.81,19.18-.32-.16-.62-.37-.88-.62Z"/>
  </g>
</svg>