<?xml version="1.0" encoding="UTF-8"?>
<svg id="Layer_2" data-name="Layer 2" xmlns="http://www.w3.org/2000/svg" viewBox="0 0 255.67 391.3">
  <defs>
    <style>
      .cls-1 {
        fill: #2f2e41;
      }

      .cls-1, .cls-2, .cls-3, .cls-4 {
        stroke-width: 0px;
      }

      .cls-2 {
        fill: #3f3d56;
      }

      .cls-3 {
        fill: #ccc;
      }

      .cls-4 {
        fill: #a0616a;
      }
    </style>
  </defs>
  <g id="svg21">
    <polygon id="polygon6" class="cls-4" points="136.5 373.13 128.06 373.13 124.05 340.6 136.5 340.6 136.5 373.13"/>
    <path id="path7" class="cls-1" d="m111.04,385.58c0,1.97,1.6,3.56,3.57,3.57h15.88l.49-1.02,2.25-4.63.87,4.63.19,1.02h5.99l-.09-1.03-1.6-19.15-2.09-.13-9.03-.53-2.22-.14v5.72c-1.68,1.79-14.89,8.56-14.22,11.69Z"/>
    <polygon id="polygon7" class="cls-4" points="213.26 366.74 205.27 369.46 191 339.95 202.78 335.94 213.26 366.74"/>
    <path id="path8" class="cls-1" d="m193.16,386.73c.64,1.86,2.66,2.86,4.53,2.23l15.03-5.11.14-1.12.63-5.11,2.32,4.11.51.9,5.67-1.93-.41-.94-7.68-17.62-2.02.55-8.72,2.4-2.14.59,1.84,5.41c-1.02,2.24-11.34,12.89-9.7,15.64Z"/>
    <circle id="circle8" class="cls-1" cx="149.64" cy="9.4" r="9.4"/>
    <path id="path9" class="cls-1" d="m149.71,23.02c-4.38-2.68-5.75-8.4-3.08-12.77.04-.06.08-.13.12-.19,2.76-4.4,8.57-5.72,12.96-2.96h0c4.4,2.76,1.1,8.11,2.96,12.96,2.63,6.86-6.91,6.47-12.96,2.96Z"/>
    <path id="path10" class="cls-1" d="m112.58,146.22h47.61l4.09,22.98s18.89,20.65,10.23,38.52c0,0,6.01,9.06,2.85,12.42s-8.9,1.76-3.16,5.17,8.88,1.53,5.74,4.82,15.67,67,15.67,67l21.42,60.43-20.37,1.71-41.8-60.02-21.91-79.11,9.47,139.14h-22.5l-11.25-15.2s4.45-.78,0-5.59-8.63-5.31-4.45-7.15-9.4-43.09-9.4-43.09l17.76-142.04Z"/>
    <path id="path11" class="cls-2" d="m111.8,132.9s-6.27,3.66-3.13,5.22,3.13,1.68,3.13,4.23,1.04,7.26,2.61,7.26,14.62,0,21.41,12.01,32.9,7.83,32.9,4.18-1.9-16.71-5.13-19.58-6.36-1.83-3.75-4.44,6.79-1.04,3.66-4.18-5.74-3.66-5.74-8.36,10.97-50.07,10.97-50.07c0,0-1.04-15.21-8.88-15.21-4.63-.05-8.86-2.66-10.97-6.79l-1.31-10.18-19.32-2.61-4.44,12.27s-7.57,8.62-7.57,11.23-17.23,18.28-10.44,29.77,9.14,3.92,7.05,9.14-1.04,26.11-1.04,26.11Z"/>
    <path id="path12" class="cls-1" d="m127.89,20.11c-.33.76-10.4.68-10.86,1.36-3.56,5.23,9.26,27.5,5.71,32.74l-.5.59c1.16-.53,2.28-1.16,3.33-1.88.09-2.14.19-4.3.29-6.44,1.07,1.36,1.93,2.87,2.55,4.49,1.54-1.44,3.24-2.72,5.06-3.79,1.44-1.58,3.09-2.94,4.92-4.05l-10.5-23.01Z"/>
    <circle id="circle12" class="cls-4" cx="132.88" cy="28.13" r="16.67"/>
    <path id="path13" class="cls-1" d="m145.54,52.15c-1.36-1.13-2.3-2.69-2.69-4.41-.31,2.1-.23,4.23.24,6.3-.9.68-1.78,1.32-2.61,1.91-.63-1.61-1.49-3.12-2.55-4.49-.1,2.14-.2,4.3-.29,6.44-1.06.72-2.17,1.35-3.33,1.88l.5-.59c3.56-5.24-5.65-14.89-2.09-20.12,1-1.47-3.51-13.05-6.94-13.58-3.05-.46-2.93.42-5.89,1.07-.31-1.28-.78-2.52-1.42-3.67.17,1.29.13,2.59-.12,3.87-1.05.04-1.88-.63-3-.8-7.15-1.09-6.42-8.82-4.43-11.27,2-2.44,8.62-3.18,11.68-3.97.28-.27.91-.1,1.19-.36,5.85-5.36,13.68-6.24,20.73-3.87,7.51,2.53,12.2,7.43,14.6,14.99l.69,6.05c.62,1.94-.16,10.99-.69,12.96-2.06,7.66-6.45,3.84-13.57,11.68Z"/>
    <path id="path14" class="cls-4" d="m91.26,169.87c2.27-1.6,2.85-4.72,1.31-7.04-.15-.22-.33-.43-.52-.63l17.42-34.79-9.89-8.07-14.8,43.08c-1.54,1.74-1.71,4.3-.42,6.23,1.52,2.23,4.57,2.81,6.8,1.29.04-.03.07-.05.11-.08Z"/>
    <path id="path15" class="cls-2" d="m139.44,68.26s-4.76-10.26-17.5-.08-23.11,42.15-22.93,44.2,1.79.06-.72,4.13c-2.04,3.31.62,4.01-.61,4.35-3.24.89,3.17,4.14-.98,4.32s10.66,7.46,10.66,7.46c0,0,2.41-.45,3.42-5.91.57-3.06-.74-4.89,1.74-5.28s.46-6.09.86-6.95,15.1-16.87,15.1-16.87l10.97-29.36Z"/>
    <path id="path17" class="cls-4" d="m155.06,177.99c-1.38-2.41-.6-5.48,1.78-6.93.23-.14.48-.26.73-.35l-1.14-38.89,12.37-3.15-4.72,45.31c.66,2.23-.26,4.62-2.24,5.83-2.32,1.39-5.33.63-6.71-1.7-.02-.04-.05-.08-.07-.12Z"/>
    <path id="path18" class="cls-2" d="m154.15,65.53s8.64-7.3,15.9,7.3,3.21,47.96,2.18,49.74-1.65-.7-1.09,4.05c.46,3.86-2.25,3.38-1.28,4.2,2.56,2.17-4.61,2.42-.93,4.33s-12.81,2.27-12.81,2.27c0,0-1.99-1.42-.61-6.8.78-3.02,2.73-4.12.65-5.52s2.15-5.71,2.15-6.66-6.59-21.67-6.59-21.67l2.42-31.25Z"/>
    <path id="path20" class="cls-3" d="m0,390.11c0,.66.53,1.19,1.18,1.19h253.3c.66,0,1.19-.53,1.19-1.19s-.53-1.19-1.19-1.19H1.19c-.66,0-1.19.53-1.19,1.18H0Z"/>
  </g>
</svg>