<?xml version="1.0" encoding="UTF-8"?>
<svg id="Layer_2" data-name="Layer 2" xmlns="http://www.w3.org/2000/svg" viewBox="0 0 317.89 485.87">
  <defs>
    <style>
      .cls-1 {
        fill: #2f2e41;
      }

      .cls-1, .cls-2, .cls-3, .cls-4, .cls-5, .cls-6 {
        stroke-width: 0px;
      }

      .cls-2 {
        fill: #3f3d56;
      }

      .cls-3 {
        fill: #93ad92;
      }

      .cls-4 {
        fill: #fff;
      }

      .cls-5 {
        fill: #ffb7b7;
      }

      .cls-6 {
        fill: #ffb6b6;
      }
    </style>
  </defs>
  <g id="Layer_1-2" data-name="Layer 1">
    <path class="cls-6" d="m96.84,69.08c.14.62.23,1.24.27,1.87l48.96,28.25,11.9-6.85,12.69,16.61-19.89,14.18c-3.3,2.35-7.76,2.24-10.94-.27l-50.49-39.83c-6.2,2.29-13.08-.87-15.37-7.07-2.29-6.2.87-13.08,7.07-15.37s13.08.87,15.37,7.07c.17.46.31.94.43,1.42h0Z"/>
    <path class="cls-2" d="m146.76,96.08c.31-1.46,1.25-2.71,2.56-3.42l22.61-12.32c6.28-4.74,15.21-3.49,19.95,2.79,4.72,6.26,3.5,15.15-2.73,19.9l-18.12,18.41c-1.99,2.02-5.23,2.04-7.25.06-.18-.18-.35-.37-.5-.57l-15.6-20.68c-.9-1.19-1.23-2.71-.92-4.17Z"/>
    <path class="cls-1" d="m187.14,24.48c3.25-10.37,10.65-19.87,20.88-23.38,10.23-3.5,25.21,1.83,32.9,9.5,14.07,14.02,17.5,62.18,7.84,77.4-1.92-.1-8.56-.18-10.5-.25l-2.75-9.17v9.08c-15.19-.47-31-.18-46.82.13-1.42-10.78-4.8-52.95-1.54-63.31Z"/>
    <polygon class="cls-6" points="182.79 459.57 168.94 459.57 162.35 406.15 182.79 406.15 182.79 459.57"/>
    <polygon class="cls-6" points="304.04 450.96 290.64 454.45 270.79 404.42 290.57 399.26 304.04 450.96"/>
    <polygon class="cls-6" points="227.71 131.43 230.85 139.59 230.22 147.75 168.8 169.03 171.85 133.32 178.75 125.15 227.71 131.43"/>
    <circle class="cls-5" cx="208.29" cy="36.06" r="21.94"/>
    <path class="cls-1" d="m193.22,7.49c12.99-7.92,29.95-3.81,37.87,9.18,2.73,4.47,4.12,9.63,4.02,14.86-11.96,3.06-24.7,4.33-38.21.74l-3.09-7.56-1.82,7.56c-4.13,2.91-8.12,2.9-11.96-.02-.33-10.02,4.69-19.45,13.18-24.77Z"/>
    <path class="cls-1" d="m188.99,485.87h-9.83l-1.75-9.28-4.49,9.28h-26.07c-3.24,0-5.86-2.62-5.86-5.86,0-1.93.95-3.73,2.53-4.82l20.82-14.38v-9.38l21.9,1.31,2.76,33.13Z"/>
    <path class="cls-1" d="m317.89,474.53l-9.51,2.48-4.04-8.54-2.01,10.11-25.23,6.58c-3.13.82-6.33-1.06-7.15-4.19-.49-1.86-.03-3.85,1.23-5.3l16.52-19.16-2.37-9.08,21.52-4.26,11.03,31.37Z"/>
    <path class="cls-1" d="m302.34,417.36l-40.6-83.45-12.75-101.57c8.79-16.32-7.53-49.53-7.53-49.53v-13.94l-63.22,11.93h0c-12.93,35.27-19.2,72.63-18.49,110.19l2.55,135.01h-.8c-2.76,0-5,2.24-5,5s2.24,5,5,5h25c2.76,0,5-2.24,5-5s-2.24-5-5-5h-.64l17.95-171.76,20.87,84.76,50.43,78.04c-2.75.21-4.8,2.61-4.58,5.36.2,2.6,2.38,4.61,4.98,4.6h25c2.76,0,5-2.23,5-4.99,0-2.05-1.25-3.89-3.16-4.65Z"/>
    <path class="cls-2" d="m247.18,191.37h0c-.43-1.67-1.88-2.88-3.61-2.99-.83-9.53-6.34-70.63-6.55-72.42v-.08s-1.6-34.06-1.6-34.06c-.12-2.56-2.14-4.62-4.7-4.79l-8.42-.55c-.24,0-.43-.21-.43-.45,0-3.91-3.17-7.08-7.08-7.08h-24.93c-3.34,0-6.16,2.49-6.58,5.8-.02.23-.22.4-.45.4h0c-5.85-.12-10.92,4.05-11.92,9.82-3.41,19.83-10.24,64.84-6.86,89.86,1.18,8.71.64,21.81.2,29.1-.09,1.42.39,2.82,1.34,3.89-2.07.6-3.29,2.72-2.77,4.81h0c.54,2.14,2.71,3.44,4.86,2.9l76.6-19.31c2.14-.54,3.44-2.71,2.9-4.86Z"/>
    <path class="cls-4" d="m179.8,75.49c-.02-3.48-2.55-6.44-5.99-6.99l-102.36-16.81c-.98-.16-1.99-.12-2.95.13l-23.99,6.2-13.76,3.56-25.4,6.57c-3.15.82-5.36,3.67-5.36,6.92v83.89c.02,3.37,2.37,6.27,5.66,6.99l104.26,22.18c.49.11.99.16,1.49.15.73,0,1.45-.11,2.15-.33l61.94-19.56c3-.94,5.03-3.73,5-6.88l-.7-86.04Z"/>
    <path class="cls-3" d="m70.3,57.85c-.07,0-.15,0-.22.03L6.92,74.21c-.39.1-.67.46-.67.86v83.89c0,.42.3.78.71.87l104.26,22.18c.15.03.31.02.46-.02l61.94-19.56c.37-.12.63-.47.62-.86l-.69-86.04c0-.43-.32-.8-.75-.87l-102.36-16.81s-.1-.01-.14-.01Z"/>
    <path class="cls-2" d="m179.8,75.49c-.02-3.48-2.55-6.44-5.99-6.99l-102.36-16.81c-.98-.16-1.99-.12-2.95.13l-23.99,6.2-13.76,3.56-25.4,6.57c-3.15.82-5.36,3.67-5.36,6.92v83.89c.02,3.37,2.37,6.27,5.66,6.99l104.26,22.18c.49.11.99.16,1.49.15.73,0,1.45-.11,2.15-.33l61.94-19.56c3-.94,5.03-3.73,5-6.88l-.7-86.04Zm-4.84,91.21l-61.94,19.56c-.88.28-1.82.32-2.73.13L6.03,164.21c-2.47-.54-4.23-2.72-4.24-5.24v-83.89c0-2.25,1.4-4.26,3.52-5.03.16-.06.33-.11.5-.15l26.87-6.95,15.89-4.11,20.39-5.27c.44-.12.89-.17,1.34-.17.29,0,.58.02.87.07l102.36,16.81c1.67.27,3.11,1.32,3.9,2.82.39.75.59,1.58.6,2.42l.7,86.04c.03,2.36-1.5,4.46-3.75,5.16h0Z"/>
    <path class="cls-2" d="m177.42,73.08c-.07.05-.15.08-.23.1l-30.11,8.14-9.37,2.53-26.66,7.2c-.08.02-.15.03-.23.03-.05,0-.11,0-.16-.01L3.18,71.47l-.36-.07c-.49-.09-.81-.56-.72-1.04.09-.49.55-.81,1.04-.72l2.16.39,105.49,19.23,22.97-6.21,12.85-3.47,29.64-8.01.47-.13c.42-.11.86.09,1.04.49.02.05.04.09.05.14.1.38-.06.79-.41,1Z"/>
    <path class="cls-2" d="m111.72,188.5c-.49,0-.89-.4-.89-.89l-.89-97.42c0-.49.39-.9.89-.9h0c.49,0,.89.4.89.89l.89,97.42c0,.49-.39.9-.89.9h0Z"/>
    <path class="cls-2" d="m147.09,176.65l-9.37,2.53-3.95-96.12-100.8-20.06c-.1-.02-.2-.04-.29-.07-.77-.22-1.45-.7-1.92-1.35l13.76-3.56,4.05.8,95.64,19.02c1.02.2,1.9.84,2.41,1.74.3.52.46,96.44.47,97.06Z"/>
    <path class="cls-6" d="m142.89,121.85c.48.41.93.86,1.33,1.34l56.15-6.56,5.46-12.6,20.09,5.76-7.5,23.25c-1.24,3.86-4.89,6.43-8.94,6.32l-64.29-1.83c-3.6,5.54-11.01,7.11-16.55,3.5-5.54-3.6-7.11-11.01-3.5-16.55,3.6-5.54,11.01-7.11,16.55-3.5.42.27.81.57,1.19.89h0Z"/>
    <path class="cls-2" d="m199.05,113.72c-.62-1.36-.61-2.92.01-4.27l10.79-23.37c2.21-7.55,10.12-11.88,17.67-9.67,7.52,2.2,11.85,10.07,9.69,17.6l-3.55,25.58c-.39,2.81-2.98,4.76-5.79,4.37-.25-.03-.5-.09-.74-.16l-24.86-7.29c-1.43-.42-2.61-1.44-3.23-2.8Z"/>
    <path class="cls-4" d="m42.5,134.5c-.11,0-.22-.01-.33-.04l-31-7c-.81-.18-1.32-.99-1.13-1.79s.99-1.32,1.79-1.13l31,7c.81.18,1.32.99,1.13,1.79-.15.68-.76,1.17-1.46,1.17Z"/>
  </g>
</svg>