<?xml version="1.0" encoding="UTF-8"?>
<svg id="Layer_2" data-name="Layer 2" xmlns="http://www.w3.org/2000/svg" viewBox="0 0 588.14 568.11">
  <defs>
    <style>
      .cls-1 {
        fill: #f2f2f2;
      }

      .cls-1, .cls-2, .cls-3, .cls-4, .cls-5, .cls-6, .cls-7, .cls-8, .cls-9 {
        stroke-width: 0px;
      }

      .cls-2 {
        fill: #2f2e41;
      }

      .cls-3 {
        fill: #3f3d56;
      }

      .cls-4 {
        fill: #ccc;
      }

      .cls-5 {
        fill: #93ad92;
      }

      .cls-6 {
        fill: #fff;
      }

      .cls-7 {
        fill: #ffb6b6;
      }

      .cls-8 {
        fill: #f0f0f0;
      }

      .cls-9 {
        fill: #e6e6e6;
      }
    </style>
  </defs>
  <g id="Layer_1-2" data-name="Layer 1">
    <path class="cls-8" d="m242.41,561.13s.04-.05.06-.08c-.04.12-.08.24-.11.37l.05-.29Z"/>
    <path class="cls-6" d="m256.14,542.34c-.79,1.06-1.6,2.09-2.42,3.12-.79.99-1.58,1.98-2.37,2.98-2.07,2.54-3.91,5.26-5.51,8.12-.8,1.48-1.47,3.04-2,4.64l-1.27-.29s-.06.1-.1.14c.01-.05.03-.1.05-.15,2.33-7.28,7.63-12.92,12.23-18.98.16-.2.31-.4.46-.6l.93,1.02Z"/>
    <path class="cls-6" d="m249.14,502.2c7.21-4.94,12.29-12.41,14.24-20.92.19-.84,1.49-.5,1.3.34-2.04,8.86-7.35,16.62-14.86,21.74-.72.49-1.39-.68-.68-1.16Z"/>
    <path class="cls-6" d="m252.04,428.54c3.18,1.28,6.8.87,9.62-1.09.71-.5,1.38.67.68,1.16-3.12,2.15-7.11,2.61-10.64,1.23-.35-.1-.56-.46-.48-.82.1-.36.46-.57.82-.48Z"/>
    <path class="cls-4" d="m587.88,276.86l-38.59-206.62c-1.36-7.01-7.39-12.16-14.53-12.38-.31,0-.62,0-.94,0l-26.29.94-2.83.1-13.12.47-2.83.1-8.44.31-170.17,6.11c-.26.01-.52.01-.78,0l-38.13-.8-14.11-.29h-.45s-10.42-.23-10.42-.23l-90.76-1.89-24.06-.51-11.86-.24-2.84-.06-13.53-.28-2.84-.06-13.84-.28-2.84-.06-15.21-.32-2.39-.05-13.56-.28-2.14-.04h-.31c-7.43.03-13.77,5.41-14.99,12.75L.2,287.65c-1.35,8.28,4.26,16.08,12.54,17.43.81.13,1.63.2,2.45.2h200.43c2.95,0,5.82.96,8.2,2.7l3.8,2.82c2.62,1.93,5.78,2.97,9.04,2.98h118.12c4.03.01,7.9-1.59,10.74-4.45,2.41-2.41,5.62-3.84,9.01-4.01l199.23-10.5c8.37-.44,14.81-7.58,14.37-15.95-.04-.67-.11-1.34-.24-2h0Z"/>
    <path class="cls-9" d="m556.3,271.24l-21.51-213.11c0-.09-.02-.19-.03-.28-.4-3.4-2.08-6.53-4.7-8.74l-46.27-38.55c-2.01-1.69-4.51-2.69-7.14-2.85-21.17-1.36-128.8-6.39-168.52,28.09-2.44,2.12-5.69,3.06-8.89,2.55-3.2-.52-6.02-2.41-7.71-5.17-3.38-5.26-7.8-9.78-13-13.26-2.33-1.62-4.77-3.1-7.28-4.42-2.23-1.17-4.65-2.31-7.28-3.4-2.27-.94-4.69-1.85-7.28-2.72-13.45-4.49-31.42-7.85-55.44-8.97-9.96-.47-20.8-.53-32.19-.19-10.4.31-21.45.94-32.85,1.88h-.17S58.95,49.16,58.95,49.16c-3.5,2.18-5.81,5.85-6.25,9.96l-.16,1.41-24.48,218.71c-.43,3.76.71,7.52,3.16,10.41,2.38,2.82,5.87,4.45,9.56,4.47h189.94c2.53.01,4.97.88,6.94,2.46l8.29,6.64c2.16,1.74,4.84,2.71,7.61,2.76l83.52,1.37h.2c2.11,0,4.18-.54,6.03-1.57l16.11-8.95c1.47-.82,3.11-1.29,4.78-1.39l180.01-9.51c3.55-.19,6.85-1.88,9.08-4.65,2.31-2.81,3.4-6.44,3.01-10.06Z"/>
    <path class="cls-6" d="m493.47,232.81l-2.52-33.17-10.63-139.86-1.58-20.69c-.83-11.26-10.07-20.05-21.36-20.31-38.95-1-109.48.76-144.09,23.95-7.96,5.41-18.7,4.09-25.11-3.1-4.79-5.26-10.54-9.55-16.94-12.65-4.68-2.35-9.55-4.31-14.56-5.86-14.65-4.68-33.14-7.52-55.46-8.53l-52.98-.31h-.09c-7.62,0-13.92,5.93-14.4,13.53l-2.3,36.37-10.05,159.5c-.77,12.11,8.43,22.55,20.54,23.32.36.02.72.04,1.09.04,88.93,1.32,127.78,20.09,144.72,35.59,7.41,6.8,18.49,7.7,26.9,2.18,30.75-20.14,81.87-25.74,122.56-26.61,12.46-.26,23.94-.09,33.56.25,12.13.44,22.31-9.04,22.75-21.17.03-.82.01-1.65-.05-2.47h0Z"/>
    <path class="cls-6" d="m51.99,279.07s-.07,0-.1,0c-.78-.05-1.37-.73-1.31-1.51,0,0,0,0,0,0l15.3-216.05c.05-.77.71-1.36,1.48-1.32.01,0,.02,0,.03,0,.78.05,1.37.73,1.31,1.51,0,0,0,0,0,0l-15.3,216.05c-.05.74-.67,1.32-1.41,1.32Z"/>
    <path class="cls-6" d="m70.4,270.57s-.07,0-.1,0c-.78-.05-1.37-.73-1.31-1.51,0,0,0,0,0,0l15.3-216.05c.05-.77.71-1.36,1.48-1.32.01,0,.02,0,.03,0,.78.05,1.37.73,1.31,1.51,0,0,0,0,0,0l-15.3,216.05c-.05.74-.67,1.32-1.41,1.32Z"/>
    <path class="cls-6" d="m87.4,266.32s-.07,0-.1,0c-.78-.05-1.37-.73-1.31-1.51,0,0,0,0,0,0l15.3-216.05c.05-.77.71-1.36,1.48-1.32.01,0,.02,0,.03,0,.78.05,1.37.73,1.31,1.51,0,0,0,0,0,0l-15.3,216.05c-.05.74-.67,1.32-1.41,1.32Z"/>
    <path class="cls-6" d="m104.39,257.82s-.07,0-.1,0c-.78-.05-1.37-.73-1.31-1.51,0,0,0,0,0,0l15.3-216.05c.05-.77.71-1.36,1.48-1.32.01,0,.02,0,.03,0,.78.05,1.37.73,1.31,1.51,0,0,0,0,0,0l-15.3,216.05c-.05.74-.67,1.32-1.41,1.32Z"/>
    <path class="cls-6" d="m539.23,280.49s.07,0,.1,0c.78-.05,1.37-.73,1.31-1.51,0,0,0,0,0,0l-15.3-216.05c-.05-.77-.71-1.36-1.48-1.32-.01,0-.02,0-.03,0-.78.05-1.37.73-1.31,1.51,0,0,0,0,0,0l15.3,216.05c.05.74.67,1.32,1.41,1.32Z"/>
    <path class="cls-6" d="m520.81,267.74s.07,0,.1,0c.78-.05,1.37-.73,1.31-1.51,0,0,0,0,0,0l-15.3-216.05c-.05-.77-.71-1.36-1.48-1.32-.01,0-.02,0-.03,0-.78.05-1.37.73-1.31,1.51,0,0,0,0,0,0l15.3,216.05c.05.74.67,1.32,1.41,1.32Z"/>
    <path class="cls-6" d="m503.82,253.57s.07,0,.1,0c.78-.05,1.37-.73,1.31-1.51,0,0,0,0,0,0l-15.3-216.05c-.05-.77-.71-1.36-1.48-1.32-.01,0-.02,0-.03,0-.78.05-1.37.73-1.31,1.51,0,0,0,0,0,0l15.3,216.05c.05.74.67,1.32,1.41,1.32Z"/>
    <path class="cls-3" d="m156.22,61.08c31.93-10.19,67.55-7.49,97.79,6.86,8.63,4.07,16.78,9.09,24.3,14.97,2.13,1.67,5.16-1.32,3-3-27.78-21.55-62.69-31.78-97.71-28.65-9.69.87-19.25,2.79-28.52,5.73-2.6.83-1.49,4.93,1.13,4.1h0Z"/>
    <path class="cls-3" d="m331.9,84.56c29.68-15.6,65.23-19,97.5-10.15,9.2,2.52,18.09,6.05,26.51,10.54,2.41,1.29,4.56-2.38,2.14-3.67-30.76-16.41-67.68-20.19-101.27-11.04-9.37,2.56-18.43,6.13-27.03,10.65-2.42,1.27-.28,4.94,2.14,3.67Z"/>
    <path class="cls-3" d="m331.9,112.89c29.68-15.6,65.23-19,97.5-10.15,9.2,2.52,18.09,6.05,26.51,10.54,2.41,1.29,4.56-2.38,2.14-3.67-30.76-16.41-67.68-20.19-101.27-11.04-9.37,2.56-18.43,6.13-27.03,10.65-2.42,1.27-.28,4.94,2.14,3.67h0Z"/>
    <path class="cls-6" d="m379.71,186.59c-.34.01-.67.03-.99.04-2.37-.85-4.79-1.6-7.24-2.25-1.59-.42-3.2-.81-4.82-1.13-1.83-.4-3.67-.71-5.51-.98-3.51-.51-7.04-.81-10.58-.89-.11.01-.2-.06-.21-.17-.01-.11.06-.2.17-.21.01,0,.03,0,.04,0,.45,0,.91.01,1.35.04,3.55.13,7.09.48,10.59,1.03,1.83.3,3.65.65,5.47,1.05,1.64.37,3.29.78,4.9,1.23,2.31.65,4.58,1.4,6.83,2.24Z"/>
    <path class="cls-6" d="m420.56,188.35c-.24-.04-.48-.07-.74-.1-.98-.81-1.97-1.57-3-2.32-1.29-.93-2.62-1.81-3.98-2.63-3.01-1.83-6.16-3.43-9.41-4.79-5.14-2.14-10.46-3.82-15.89-5.01-6.2-1.36-12.48-2.34-18.8-2.95-6.32-.65-12.66-1.05-19.01-1.44-.27-.01-.28-.41,0-.4.79.06,1.59.1,2.39.16,6.42.4,12.83.85,19.21,1.57,6.32.68,12.59,1.77,18.77,3.26,5.27,1.3,10.42,3.07,15.38,5.28,2.85,1.28,5.62,2.75,8.27,4.4,1.69,1.06,3.31,2.2,4.87,3.4.65.51,1.3,1.02,1.93,1.57Z"/>
    <path class="cls-6" d="m417.9,188.02c-.26-.04-.52-.07-.78-.09-.3-.24-.61-.47-.92-.69-2.18-1.56-4.46-2.98-6.81-4.26-2.14-1.16-4.34-2.22-6.59-3.16-5.14-2.15-10.45-3.82-15.89-5.01-6.2-1.36-12.48-2.34-18.8-2.95-6.32-.65-12.66-1.05-19.01-1.44-.27-.03-.27-.41,0-.4.81.06,1.6.1,2.39.16,6.42.4,12.83.85,19.21,1.57,6.32.68,12.59,1.77,18.77,3.26,5.28,1.3,10.42,3.07,15.38,5.28,1.87.85,3.7,1.77,5.48,2.78,2.65,1.45,5.18,3.11,7.56,4.96Z"/>
    <path class="cls-6" d="m350.6,139.92l-.57.41c.19-.15.4-.28.6-.41h-.03Z"/>
    <path class="cls-3" d="m156.22,89.41c31.93-10.19,67.55-7.49,97.79,6.86,8.63,4.07,16.78,9.09,24.3,14.97,2.13,1.67,5.16-1.32,3-3-27.78-21.55-62.69-31.78-97.71-28.65-9.69.87-19.25,2.79-28.52,5.73-2.6.83-1.49,4.93,1.13,4.1h0Z"/>
    <path class="cls-3" d="m156.22,117.74c31.93-10.19,67.55-7.49,97.79,6.86,8.63,4.07,16.78,9.09,24.3,14.97,2.13,1.67,5.16-1.32,3-3-27.78-21.55-62.69-31.78-97.71-28.65-9.69.87-19.25,2.79-28.52,5.73-2.6.83-1.49,4.93,1.13,4.1h0Z"/>
    <path class="cls-3" d="m156.22,146.07c31.93-10.19,67.55-7.49,97.79,6.86,8.63,4.07,16.78,9.09,24.3,14.97,2.13,1.67,5.16-1.32,3-3-27.78-21.55-62.69-31.78-97.71-28.65-9.69.87-19.25,2.79-28.52,5.73-2.6.83-1.49,4.93,1.13,4.1h0Z"/>
    <path class="cls-3" d="m156.22,174.4c31.93-10.19,67.55-7.49,97.79,6.86,8.63,4.07,16.78,9.09,24.3,14.97,2.13,1.67,5.16-1.32,3-3-27.78-21.55-62.69-31.78-97.71-28.65-9.69.87-19.25,2.79-28.52,5.73-2.6.83-1.49,4.93,1.13,4.1h0Z"/>
    <path class="cls-3" d="m156.22,202.72c31.93-10.19,67.55-7.49,97.79,6.86,8.63,4.07,16.78,9.09,24.3,14.97,2.13,1.67,5.16-1.32,3-3-27.78-21.55-62.69-31.78-97.71-28.65-9.69.87-19.25,2.79-28.52,5.73-2.6.83-1.49,4.93,1.13,4.1h0Z"/>
    <path class="cls-5" d="m271.25,15.5v79.4c0,1.35-2.36,2.48-5.54,2.79-.55.06-1.14.08-1.74.08-1.75.03-3.49-.25-5.15-.84-.31-.12-.6-.26-.89-.42-.79-.46-1.25-1.01-1.25-1.61V9.38c2.59.87,5.01,1.78,7.28,2.72,2.64,1.1,5.06,2.23,7.28,3.4Z"/>
    <rect class="cls-9" x="299.68" y="42.73" width="2.08" height="256.83"/>
    <path class="cls-1" d="m487.42,249.7c-4.34,4.51-10.39,6.97-16.65,6.75-9.62-.34-21.1-.51-33.56-.25l-.07-.06,54-70,2.33,46.67c.47,6.23-1.73,12.37-6.05,16.89Z"/>
    <polygon class="cls-7" points="352.99 494.35 350.11 517.73 347.91 535.5 347.03 542.67 334.51 542.67 334.51 536.3 334.5 515.22 334.5 494.35 352.99 494.35"/>
    <path class="cls-3" d="m329.15,198.37c29.68-15.6,65.23-19,97.5-10.15,9.2,2.52,18.09,6.05,26.51,10.54,2.41,1.29,4.56-2.38,2.14-3.67-30.76-16.41-67.68-20.19-101.27-11.04-9.37,2.56-18.43,6.13-27.03,10.65-2.42,1.27-.28,4.94,2.14,3.67Z"/>
    <path class="cls-3" d="m329.15,226.7c29.68-15.6,65.23-19,97.5-10.15,9.2,2.52,18.09,6.05,26.51,10.54,2.41,1.29,4.56-2.38,2.14-3.67-30.76-16.41-67.68-20.19-101.27-11.04-9.37,2.56-18.43,6.13-27.03,10.65-2.42,1.27-.28,4.94,2.14,3.67h0Z"/>
    <polygon class="cls-7" points="265.69 491.9 262.14 502.86 259.29 511.65 258.8 513.16 256.85 519.17 252.73 531.88 250.68 538.21 239.29 536.01 238.38 535.84 239.12 532.02 239.57 529.69 244.55 503.87 245.36 499.71 245.49 499.04 245.86 497.11 247.54 488.4 259.68 490.74 261.08 491.01 265.69 491.9"/>
    <path class="cls-2" d="m371.8,355.12c-7.16,39.35-8.95,56.34-8.95,56.34,0,0,5.37,6.26,1.79,9.84s0,10.73,0,10.73l-8.05,86.75-6.48-1.05-15.61-2.51-5.63-.91,3.58-81.38s-3.58-7.16-1.79-8.95-1.79-12.52-1.79-12.52l-4.47-84.96-27.73,93.01s2.69,3.58,0,6.26c-2.68,2.68-8.04,16.1-8.04,16.1l-16.49,57.7-1.4,4.9-8.6-1.61-9.36-1.76-1.72-.32-3.06-.58-1.97-.37-.67-.12-3.24-.61.98-4.35.51-2.29,13.95-61.96.32-1.43.34-1.51s-1.79-4.47.89-7.16c1.59-1.66,2.26-4.01,1.79-6.26-.09-.09-.17-.19-.24-.3-.32-.43-.53-.93-.64-1.46-.24-1.12-.03-2.69,1.78-4.5.51-.54.94-1.15,1.27-1.82,2.72-5.15,4.09-16.06,4.09-16.06,0,0,2.42-86.41,10.34-99.61.31-.58.75-1.07,1.29-1.45,8.94-5.36,94.79,0,94.79,0,0,0,.12.62.31,1.8,1.03,6.63,3.98,31-2.09,64.38Z"/>
    <path id="fa90ba82-4976-41ea-9b03-d8a96d925ef6-359" class="cls-7" d="m368.99,196.37l2.51-15.1,46.16,7.77,65.5,4.69c3.64-4.03,9.86-4.34,13.89-.7,4.03,3.64,4.34,9.86.7,13.89-3.64,4.03-9.86,4.34-13.89.7-1.01-.91-1.82-2.03-2.38-3.27l-40.17,2.7-72.32-10.68Z"/>
    <path id="fb44d525-e05f-4433-9150-930b9a652ce4-360" class="cls-5" d="m334.48,185.92l3.26-13.48s17.7-3.26,31.69-.14l52.65,10.1-4.26,31.82-83.34-28.31Z"/>
    <path id="ed2da19a-1c50-4597-bafc-ed19ebf50383-361" class="cls-7" d="m212.29,296.92l29.45-63.98,21.49-45.27,18.64,10.97-58.03,105.32c1.42,5.24-1.67,10.65-6.92,12.07-5.24,1.42-10.65-1.67-12.07-6.92-1.42-5.24,1.67-10.65,6.92-12.07.17-.05.34-.09.51-.12h0Z"/>
    <path id="a46ff28a-e8a9-4d92-ab46-12a75733fdc3-362" class="cls-5" d="m297.23,168.27l-14.3-6.56s-2.53-.88-8,6.69-52.49,78.99-52.49,78.99l29.86,13.5,44.93-92.62Z"/>
    <path class="cls-2" d="m369.17,556.59l-18.61-12.86v-8.39l-2.65.16-13.4.8-3.53.21-2.44,29.22-.03.41h8.79l.08-.41,1.49-7.89,3.81,7.89.2.41h23.32c.7,0,1.39-.14,2.04-.41,2.66-1.12,3.91-4.2,2.79-6.86-.39-.92-1.03-1.71-1.86-2.28h0Z"/>
    <path class="cls-3" d="m330.16,142.37c29.68-15.6,65.23-19,97.5-10.15,9.2,2.52,18.09,6.05,26.51,10.54,2.41,1.29,4.56-2.38,2.14-3.67-30.76-16.41-67.68-20.19-101.27-11.04-9.37,2.56-18.43,6.13-27.03,10.65-2.42,1.27-.28,4.94,2.14,3.67Z"/>
    <path class="cls-3" d="m330.16,170.7c29.68-15.6,65.23-19,97.5-10.15,9.2,2.52,18.09,6.05,26.51,10.54,2.41,1.29,4.56-2.38,2.14-3.67-30.76-16.41-67.68-20.19-101.27-11.04-9.37,2.56-18.43,6.13-27.03,10.65-2.42,1.27-.28,4.94,2.14,3.67h0Z"/>
    <path class="cls-2" d="m269.91,557.36l-8.11-8.84-5.66-6.18-.93-1.02-.14-.15-.45-.49,1.87-8.18-3.76-.62-13.16-2.19-.71-.11-1.4-.24-.32-.05-4.49,14.15-4.07,12.79-.44,1.4,5.41,1.23,3.16.72,1.56-3.58.17-.38,1.02-2.35h0s.63-1.43.63-1.43l2.07,8.98.36.08h.05s1.27.3,1.27.3l2.48.57,17.34,3.96,1.23.28c2.82.63,5.62-1.14,6.27-3.95.38-1.68-.09-3.43-1.25-4.7Z"/>
    <path class="cls-7" d="m350.17,127.02c-4.09,7.51-11.29,12.84-19.67,14.56-.46.1-.92.18-1.39.25-15.89,2.48-30.79-8.38-33.27-24.28-2.48-15.89,8.39-30.79,24.28-33.27,15.89-2.48,30.79,8.38,33.27,24.28.99,6.34-.14,12.83-3.22,18.46Z"/>
    <path class="cls-2" d="m338.59,87.49c-9.53-6.55-17.92-7.55-24.82-5.69-.89-1.38-2.15-2.5-3.62-3.22-5.38-13.55-21.74-21.68-35.78-17.73-14.13,3.98-23.88,19.64-21.22,34.07,1.65,8.95,7.28,16.7,9.55,25.51,4.39,17.06-6.31,36.61-23.05,42.11,15.85,3.18,33.29-6.5,38.98-21.63,2.76-7.35,2.93-15.37,3.28-23.22.09-5.41.76-10.8,1.98-16.08.61-2.37,1.46-4.66,2.56-6.85,2.38-4.8,6.34-8.64,11.21-10.88-.88,2.74-.4,5.73,1.31,8.05-3.72,4.66-5.74,9.69-5.74,12.71-7.72,14.11,3.32,26.23,17.43,33.95,5.63,3.1,12.13,4.23,18.47,3.22l.59-2.52.8,2.27,2.67,7.61c3.08,1.49,6.13,3.12,9.16,4.9-1.15-5.4-2.08-10.79-2.72-16.06-.89-7.17,2.2-17.85,4.43-24.35,1.38-4,2.09-8.21,2.1-12.44v-.19l2.17,6.97,7.9-3.37c-1.47-8.43,0-18-17.62-17.17Z"/>
    <path class="cls-5" d="m277.89,280.89c1.04-4.11,1.04-8.41,0-12.52-1.79-6.26,1.79-8.94,1.79-8.94l.89-96.58c3.78-3.78,13.9-3.84,19.56-3.55v-4.25c0-3.26,2.64-5.91,5.91-5.91h26.19c3.26,0,5.91,2.64,5.91,5.91v5.1l7.68.12c13.38,1,25.08,14.21,25.08,14.21l-11.63,44.72s3.58,36.67,8.05,41.14c4.47,4.47,2.68,7.15,2.68,7.15,0,0-2.68,9.84,2.68,13.41,5.37,3.58,1.79,9.84,1.79,9.84,0,0-96.58,1.79-99.27-.89-2.68-2.68,2.68-8.94,2.68-8.94Z"/>
    <path class="cls-4" d="m455.85,566.92c0,.66-.53,1.19-1.18,1.19H174.37c-.66,0-1.19-.53-1.19-1.19s.53-1.19,1.19-1.19h280.29c.66,0,1.19.53,1.19,1.18h0Z"/>
  </g>
</svg>