<?xml version="1.0" encoding="UTF-8"?>
<svg id="Layer_2" data-name="Layer 2" xmlns="http://www.w3.org/2000/svg" viewBox="0 0 326.29 146.38">
  <defs>
    <style>
      .cls-1 {
        fill: #fff;
      }

      .cls-1, .cls-2 {
        stroke-width: 0px;
      }

      .cls-2 {
        fill: #e6e6e6;
      }
    </style>
  </defs>
  <g id="Layer_1-2" data-name="Layer 1">
    <path class="cls-2" d="m.06,71.25c.41,5.85,2.13,11.53,5.04,16.62,6.13,10.76,16.64,18.55,27.95,23.18,14.14,5.79,29.9,5.96,44.91,4.67,13.94-1.2,27.73-3.98,41.72-4.55,10.82-.35,21.65-.09,32.43.77,20.93,1.49,41.78,4.24,62.49,7.58,5.61.89,11.21,1.85,16.79,2.88.53.05,1.05.14,1.56.29.1.04.26,0,.36.07.17.11-.68-.27-.17.16.72.75,1.36,1.58,1.91,2.46l7.65,9.84c2.19,2.82,4.23,6.25,7.06,8.48,4.09,3.16,9.67,3.55,14.16.99,2.29-1.45,4.12-3.52,5.27-5.98,1.76-3.23,3.86-6.26,6.26-9.04,9.1-10.62,21.75-17.15,32.32-26.08,5.12-4.15,9.5-9.15,12.93-14.78,2.93-5.09,4.75-10.75,5.34-16.59,1.27-11.87-2.38-23.98-8.5-34.08-6.66-10.85-16.24-19.61-27.63-25.29-12.8-6.52-26.97-9.7-41.17-11.28C233.66-.1,218.41-.1,203.26.07c-17,.19-33.97.94-50.92,2.24-16.96,1.31-33.86,3.18-50.69,5.6-16.15,2.32-32.5,4.74-48.3,8.85-13.96,3.63-27.89,9.3-38.32,19.58C5.76,45.49-.69,57.99.06,71.25Z"/>
    <path class="cls-1" d="m73.84,23.54c-15.08,2.78-30.85,6.19-43.5,14.44-12.51,8.16-20.12,20.98-19.38,32.67,1.08,17.08,19.24,29.85,35.77,33.19,15.84,3.2,32.34,1.03,49.8-1.26,3.87-.51,7.86-1.03,11.82-1.49,43-4.97,123.73,10.34,127.15,10.99l3.55.68,18.79,24.18c4.28-9.52,11.72-17.99,19.61-24.31,3.62-2.89,7.39-5.57,11.04-8.17,9.31-6.62,18.1-12.87,22.95-21.46,10.57-18.7-1.92-44.79-19.73-56.49-20.07-13.19-46.52-15.26-72.11-15.53-2.67-.03-5.33-.04-8-.04-46.21,0-92.32,4.22-137.76,12.6Z"/>
    <path class="cls-2" d="m61.81,44.21c0-2.18,1.76-3.95,3.94-3.95h181.48c2.18,0,3.95,1.77,3.95,3.95s-1.77,3.95-3.95,3.95H65.76c-2.18,0-3.94-1.77-3.94-3.94Z"/>
    <path class="cls-2" d="m61.81,68.45c0-2.18,1.76-3.95,3.94-3.95h181.49c2.18,0,3.95,1.77,3.94,3.95,0,2.18-1.77,3.95-3.95,3.94H65.76c-2.18,0-3.94-1.77-3.94-3.94Z"/>
    <path class="cls-2" d="m222.15,92.68c0-2.18,1.76-3.95,3.94-3.95h21.15c2.18,0,3.95,1.77,3.95,3.95s-1.77,3.95-3.95,3.95h-21.15c-2.18,0-3.94-1.77-3.94-3.94Z"/>
  </g>
</svg>