<?xml version="1.0" encoding="UTF-8"?>
<svg id="Layer_2" data-name="Layer 2" xmlns="http://www.w3.org/2000/svg" viewBox="0 0 245.48 410.04">
  <defs>
    <style>
      .cls-1 {
        fill: #2f2e41;
      }

      .cls-1, .cls-2, .cls-3, .cls-4, .cls-5 {
        stroke-width: 0px;
      }

      .cls-2 {
        fill: #3f3d56;
      }

      .cls-3 {
        fill: #9f616a;
      }

      .cls-4 {
        fill: #93ad92;
      }

      .cls-5 {
        fill: #fff;
      }
    </style>
  </defs>
  <g id="Layer_1-2" data-name="Layer 1">
    <polygon class="cls-3" points="163.48 400.26 153.4 400.26 148.6 361.37 163.48 361.37 163.48 400.26"/>
    <path class="cls-1" d="m166.05,410.04h-32.52v-.41c0-6.99,5.67-12.66,12.66-12.66h19.86s0,13.07,0,13.07Z"/>
    <polygon class="cls-3" points="65.19 399.46 55.63 396.26 63.45 357.86 77.56 362.59 65.19 399.46"/>
    <path class="cls-1" d="m64.53,409.55l-30.83-10.34.13-.39c2.22-6.63,9.4-10.2,16.02-7.98h0s18.83,6.31,18.83,6.31l-4.15,12.39Z"/>
    <path class="cls-1" d="m77.63,199.24l-21.84,184.73,21.42,1.81s33.69-181.62,44.08-160.11,23.11,156.08,23.11,156.08h21.26s5.45-209.95-16.81-220.34l-71.22,37.84Z"/>
    <circle class="cls-3" cx="113.04" cy="43.32" r="21.51"/>
    <path class="cls-2" d="m100.25,72.75l27.45,2.23s21.89.37,30.79,6.31-8.53,42.66-8.53,42.66c0,0-4.53,14.56-1.11,21.14,11.1,21.36,9.45,37.81,9.45,37.81,0,0-22.8,5.22-62.12,15.6,0,0-24.48,9.64-23.74,4.45s8.16-64.54,8.16-64.54v-61.58l19.66-4.08Z"/>
    <path class="cls-1" d="m148.27,40.99c-1.1-6.13-3.56-14.82-9.04-21.41.17,0,.34,0,.52,0,1.88-.05,4.03-.65,4.81-2.37.51-1.4.22-2.97-.75-4.09-.97-1.09-2.13-2-3.43-2.68,1.32.8,3.19,1.55,4.25.42.55-.7.65-1.65.26-2.45-.4-.77-.96-1.45-1.65-1.99-2.22-1.97-4.65-3.68-7.25-5.12-2.01-1.11-4.65-2-6.46-.58-1.84,1.45-1.54,4.27-1.07,6.56-1.03-.6-2.19-.95-3.38-1.02-1.23-.04-2.31.8-2.59,1.99-.03.93.42,1.81,1.2,2.32-7.09-1.17-16.16.16-27.75,5.52,0,0-11.24,3.75-11.81,18.54-.06,2.37.2,4.73.78,7.02.63,2.68,2.88,15.83.18,21.15l13.53,4.82.16-8.11c-10.52-15.18-5.32-20.75-1.23-29.88.02-.05.08-.07.13-.05.02,0,.04.02.05.04.76,1.3,3.66,5.75,13.64,5.75l-3.86-3.86s16.97,6.94,23.14,6.94c0,0,4.63,3.08,0,7.71s-14.75,11.44-9.36,19.92,4.93,11.49,4.93,11.49l12.34-6.94s7.54-14.91,8.87-19.3c1.1-3.34,1.39-6.89.84-10.36Z"/>
    <polygon class="cls-4" points="0 208.18 245.48 208.18 245.48 344.24 214.3 344.24 214.3 381.66 180.71 344.24 0 344.24 0 208.18"/>
    <rect class="cls-5" x="40.25" y="248.15" width="164.98" height="7.37"/>
    <rect class="cls-5" x="40.25" y="272.53" width="164.98" height="7.37"/>
    <rect class="cls-5" x="40.25" y="296.91" width="164.98" height="7.37"/>
    <path class="cls-3" d="m161.18,121l-14.4,3.5-.11,29.14-16.19,55.89c-3.92,3.1-4.58,8.79-1.48,12.71,3.1,3.92,8.79,4.58,12.71,1.48,2.97-2.35,4.16-6.29,2.99-9.89l19.36-57.86-2.88-34.98Z"/>
    <path class="cls-3" d="m65.35,120.39l17.27,4.94.11,29.14,16.19,55.89c3.92,3.1,4.58,8.79,1.48,12.71-3.1,3.92-8.79,4.58-12.71,1.48-2.97-2.35-4.16-6.29-2.99-9.89l-19.36-57.86v-36.41Z"/>
    <path class="cls-2" d="m139.57,78.32l3.57-1.16c2-.65,4.18-.5,6.08.42h0s10.39.74,11.87,8.16,5.09,72.26,5.09,72.26l-22-7-4.61-72.68Z"/>
    <path class="cls-2" d="m89.5,78.32l-6.32-.32-2-1s-11.72,1.32-13.2,8.74-5.8,74.26-5.8,74.26l22-6,5.32-75.68Z"/>
  </g>
</svg>